<svg xmlns="http://www.w3.org/2000/svg" xmlns:xlink="http://www.w3.org/1999/xlink" width="137" height="174" viewBox="0 0 137 174">
  <defs>
    <filter id="Path_404" x="0" y="0" width="137" height="174" filterUnits="userSpaceOnUse">
      <feOffset dy="3" input="SourceAlpha"/>
      <feGaussianBlur stdDeviation="3" result="blur"/>
      <feFlood flood-opacity="0.161"/>
      <feComposite operator="in" in2="blur"/>
      <feComposite in="SourceGraphic"/>
    </filter>
  </defs>
  <g id="Component_13_5" data-name="Component 13 – 5" transform="translate(9 6)">
    <g transform="matrix(1, 0, 0, 1, -9, -6)" filter="url(#Path_404)">
      <path id="Path_404-2" data-name="Path 404" d="M27,0H92a26.914,26.914,0,0,1,27,26.828V129.172A26.914,26.914,0,0,1,92,156H27A26.914,26.914,0,0,1,0,129.172V26.828A26.914,26.914,0,0,1,27,0Z" transform="translate(9 6)" fill="#eaeeef"/>
    </g>
    <g id="Rectangle_94" data-name="Rectangle 94" transform="translate(6 8)" fill="none" stroke="#333" stroke-width="2" opacity="0.5">
      <rect width="119" height="156" rx="27" stroke="none"/>
      <rect x="1" y="1" width="117" height="154" rx="26" fill="none"/>
    </g>
    <g id="Group_8660" data-name="Group 8660" transform="translate(6.213 7)">
      <g id="Group_8544" data-name="Group 8544" transform="translate(24.605 24)">
        <g id="Group_8523" data-name="Group 8523">
          <g id="Group_8505" data-name="Group 8505" transform="translate(0.579 23.909)">
            <path id="Path_322" data-name="Path 322" d="M11.442,38.193c-.213.065-.4.131-.513.159a26.122,26.122,0,0,1-4.489.288c-.519-.17-.448-4.7-.326-5.307.09-.46.187-.924.259-1.383a2.3,2.3,0,0,0,.41-.028,2.174,2.174,0,0,0,1.174-.863A3.557,3.557,0,0,0,8.7,29.644,3.817,3.817,0,0,1,9.81,27.971a1.806,1.806,0,0,0,.63-1.062c.009-.3-.011-.805-.343-.949-.4-.172-.743.116-1.03.372-.211.185-.42.386-.615.593a11.255,11.255,0,0,0,.217-1.119A2.611,2.611,0,0,0,8.337,23.7c-.4-.4-.821-.122-1.092.291a.592.592,0,0,0-.061.112,3.143,3.143,0,0,0-.221-.328c-.22-.277-.763-.422-.99-.06a2.137,2.137,0,0,0-.219.5,1.623,1.623,0,0,0-.308-.248.654.654,0,0,0-.885.286,1.915,1.915,0,0,0-.053.73,1.057,1.057,0,0,0-.69-.18c-.388.023-.593.39-.715.705a3.032,3.032,0,0,0-.051.768c-.035.388-.522,2.235-.574,2.826a3.3,3.3,0,0,0,.3,1.706,2.638,2.638,0,0,0,1.007,1.071c.02.044.041.087.064.133a20.967,20.967,0,0,0-.053,8.709c.286,1.205,6.838,1.136,8.514.942A16.842,16.842,0,0,0,11.442,38.193Z" transform="translate(-2.464 -23.498)" fill="#f3d9bf"/>
            <path id="Path_323" data-name="Path 323" d="M9.823,40.551c.781-.015,1.442-.053,1.832-.1a16.842,16.842,0,0,0-.862-3.47c-.213.065-.4.131-.513.159a5.512,5.512,0,0,1-.589.09A16.21,16.21,0,0,1,9.823,40.551Z" transform="translate(-1.814 -22.287)" fill="#efc9a6" opacity="0.5" style="mix-blend-mode: multiply;isolation: isolate"/>
            <path id="Path_324" data-name="Path 324" d="M9.977,25.96c-.4-.172-.743.116-1.03.372-.211.185-.42.386-.615.593A11.256,11.256,0,0,0,8.549,25.8,2.611,2.611,0,0,0,8.217,23.7c-.4-.4-.821-.122-1.092.291a.592.592,0,0,0-.061.112,3.143,3.143,0,0,0-.221-.328.789.789,0,0,0-.553-.271c.066.123.12.238.154.316A6.489,6.489,0,0,1,6.8,27.391a.129.129,0,0,1-.258,0c-.015-.306-.04-.609-.083-.9a1.1,1.1,0,0,1-.545,1.148.135.135,0,0,1-.179-.047A12.153,12.153,0,0,1,5.395,26.4a2.624,2.624,0,0,0-.538-.863,3.8,3.8,0,0,1,.493,1.414c.027.338-.09,1.026-.573,1.006-.593-.029-.83-.915-.973-1.674-.058,1.654.371,3.983,2.321,2.894a.135.135,0,0,1,.2.113A4.313,4.313,0,0,0,7.3,31.612a4.649,4.649,0,0,0,.542-.554,3.557,3.557,0,0,0,.743-1.415A3.817,3.817,0,0,1,9.69,27.97a1.806,1.806,0,0,0,.63-1.062C10.329,26.614,10.309,26.1,9.977,25.96Z" transform="translate(-2.344 -23.498)" fill="#efc9a6" opacity="0.5" style="mix-blend-mode: multiply;isolation: isolate"/>
            <path id="Path_325" data-name="Path 325" d="M7.016,23.963c-.007-.015-.025,0-.019.012.256.551.813,4.245-.429,3.858-.007,0-.013,0-.016,0a1.755,1.755,0,0,0,.175-.906c.012-.923-.391-2.587-1.337-3.006-.032-.015-.075.025-.043.053a4.067,4.067,0,0,1,1.076,1.818c.23.665.357,2.643-.9,2.157a3.137,3.137,0,0,0-1.23-3.121.031.031,0,0,0-.039.048c.795.8,1.518,2.159.915,3.282-.32.6-.808-.071-.953-.317a2.521,2.521,0,0,1-.256-.978,2.043,2.043,0,0,0-.4-1.215c-.057-.069-.157.017-.12.087.421.8.2,1.751.723,2.5.272.387.817.644,1.145.173a1.445,1.445,0,0,0,.157-.3.791.791,0,0,0,.84-.038.666.666,0,0,0,.162-.136.079.079,0,0,0,.019.034c.6.482.966-.174,1.012-.748A5.122,5.122,0,0,0,7.016,23.963Z" transform="translate(-2.377 -23.461)" fill="#c29369"/>
          </g>
          <g id="Group_8506" data-name="Group 8506" transform="translate(10.584 69.782)">
            <path id="Path_326" data-name="Path 326" d="M28.1,89.167c-.221-.474-.386-.971-.559-1.464a20.112,20.112,0,0,1-.832-2.633c-.389-1.935-.957-3.834-1.319-5.771-.368-1.962-.8-3.908-1.075-5.883-.138-.984-.292-1.976-.392-2.964-.086-.842-.089-1.691-.12-2.539a2,2,0,0,0,.085-1.026,1.131,1.131,0,0,0-.837-.678c-.5-.126-1.432.262-1.325.88a.067.067,0,0,0-.056.073,7.875,7.875,0,0,1-.113,1.1c-.041.495-.077.981-.076,1.478a25.118,25.118,0,0,0,.22,3.08,53.109,53.109,0,0,0,1.159,6.251c.506,1.974,1.127,3.919,1.71,5.871.254.86.492,1.734.789,2.58a13.979,13.979,0,0,0,1.222,2.443.141.141,0,0,0,.126.071.437.437,0,0,0,.144.1,2.132,2.132,0,0,0,.4.063c.162.035.322.05.489.075.2.027.425.085.585-.064,0,0,.007-.007.011-.011a.146.146,0,0,0,.064-.144A2.7,2.7,0,0,0,28.1,89.167Z" transform="translate(-10.76 -65.535)" fill="#f3d9bf"/>
            <path id="Path_327" data-name="Path 327" d="M15.266,83.772c-.157-.934-.239-1.871-.386-2.8a31.625,31.625,0,0,1-.436-3.139c-.11-1.964-.291-3.926-.409-5.891A29.7,29.7,0,0,1,14.09,68.9c.029-.674.133-1.4.136-2.108a.824.824,0,0,0-.034-.668c0-.037-.008-.077-.013-.113a.046.046,0,0,0-.069-.032.822.822,0,0,0-.658-.392,1.2,1.2,0,0,0-1,.556,1.231,1.231,0,0,0-.323.452.087.087,0,0,0-.081.081c-.049.453-.206.882-.266,1.33a13.175,13.175,0,0,0-.083,1.618c0,.967-.049,1.94-.05,2.911q0,1.55,0,3.1a22.192,22.192,0,0,0,.293,2.713c.251,1.994.546,3.983.778,5.98a22.385,22.385,0,0,0,.69,3.056,8.435,8.435,0,0,0,.972,2.738.206.206,0,0,0,.3.052,6.719,6.719,0,0,0,1.341.027.187.187,0,0,0,.169-.228.218.218,0,0,0,.007-.088c-.165-1.014-.355-2.022-.5-3.036S15.437,84.791,15.266,83.772Z" transform="translate(-11.644 -65.589)" fill="#f3d9bf"/>
          </g>
          <g id="Group_8507" data-name="Group 8507" transform="translate(10.686 69.782)" style="mix-blend-mode: multiply;isolation: isolate">
            <path id="Path_328" data-name="Path 328" d="M23.8,68.22c0-.1-.005-.2-.008-.307a2,2,0,0,0,.085-1.026,1.131,1.131,0,0,0-.837-.678c-.5-.126-1.432.262-1.325.88a.067.067,0,0,0-.056.073,7.875,7.875,0,0,1-.113,1.1c-.007.087-.014.171-.021.26Q22.661,68.327,23.8,68.22Z" transform="translate(-10.857 -65.535)" fill="#f3d9bf"/>
            <path id="Path_329" data-name="Path 329" d="M14.1,68.56c.04-.575.111-1.18.114-1.766a.824.824,0,0,0-.034-.668c0-.037-.008-.077-.013-.113a.046.046,0,0,0-.069-.032.822.822,0,0,0-.658-.392,1.2,1.2,0,0,0-1,.556,1.231,1.231,0,0,0-.323.452.087.087,0,0,0-.081.081c-.049.453-.206.882-.266,1.33-.015.1-.023.2-.033.3A16.833,16.833,0,0,1,14.1,68.56Z" transform="translate(-11.737 -65.589)" fill="#f3d9bf"/>
          </g>
          <g id="Group_8508" data-name="Group 8508" transform="translate(11.838 89.24)">
            <path id="Path_330" data-name="Path 330" d="M27.283,86.152a20.825,20.825,0,0,1-.815-2.562,10.327,10.327,0,0,1-2.142-.147c.247.84.484,1.7.775,2.525a13.979,13.979,0,0,0,1.222,2.443.141.141,0,0,0,.126.071.437.437,0,0,0,.144.1,2.132,2.132,0,0,0,.4.063c.162.035.322.05.489.075.2.027.425.085.585-.064,0,0,.007-.007.011-.011a.146.146,0,0,0,.064-.144,2.7,2.7,0,0,0-.3-.882C27.621,87.142,27.456,86.645,27.283,86.152Z" transform="translate(-11.758 -83.443)" fill="#b4e3f6"/>
            <path id="Path_331" data-name="Path 331" d="M27.374,86.386a1.185,1.185,0,0,1-.773.184.907.907,0,0,1-.615-.351,1.313,1.313,0,0,0-.977-.539c.01.029.021.059.029.087a13.979,13.979,0,0,0,1.222,2.443.141.141,0,0,0,.126.071.436.436,0,0,0,.144.1,2.131,2.131,0,0,0,.4.063c.162.035.322.05.489.075.2.027.425.085.585-.064,0,0,.007-.007.011-.011a.146.146,0,0,0,.064-.144,2.7,2.7,0,0,0-.3-.882C27.626,87.078,27.5,86.734,27.374,86.386Z" transform="translate(-11.696 -83.242)" fill="#b4e3f6" style="mix-blend-mode: multiply;isolation: isolate"/>
            <path id="Path_332" data-name="Path 332" d="M15.435,84.079a7.427,7.427,0,0,1-.9-.032,9.75,9.75,0,0,1-1.745-.294c.145.676.337,1.35.508,2a8.435,8.435,0,0,0,.972,2.738.206.206,0,0,0,.3.052,6.72,6.72,0,0,0,1.341.027.187.187,0,0,0,.169-.228.218.218,0,0,0,.007-.088c-.165-1.014-.355-2.022-.5-3.036C15.533,84.84,15.483,84.46,15.435,84.079Z" transform="translate(-12.794 -83.415)" fill="#b4e3f6"/>
            <path id="Path_333" data-name="Path 333" d="M15.311,87a1.052,1.052,0,0,1-.616-.254,1.35,1.35,0,0,0-.963-.415c-.1,0-.189.012-.284.017a5.84,5.84,0,0,0,.768,1.914.206.206,0,0,0,.3.052,6.72,6.72,0,0,0,1.341.027.187.187,0,0,0,.169-.228.218.218,0,0,0,.007-.088c-.064-.39-.131-.779-.2-1.167A.838.838,0,0,1,15.311,87Z" transform="translate(-12.735 -83.184)" fill="#b4e3f6" style="mix-blend-mode: multiply;isolation: isolate"/>
          </g>
          <g id="Group_8510" data-name="Group 8510" transform="translate(0 15.135)">
            <g id="Group_8509" data-name="Group 8509">
              <path id="Path_334" data-name="Path 334" d="M4.447,21.741a1.651,1.651,0,0,0,.345-.148c.132-.092.259-.189.386-.287a8.821,8.821,0,0,1,1.27-1.221c.166-.189.327-.384.48-.581a2.447,2.447,0,0,0-.713-.149,4.347,4.347,0,0,0-1.539.163c-.766.218-1.875.674-1.982,1.584C2.589,21.992,3.957,21.875,4.447,21.741Z" transform="translate(-1.864 -15.098)" fill="#7ad1f6"/>
              <path id="Path_335" data-name="Path 335" d="M2.192,18.792a.744.744,0,0,0-.259.613c.013.325.472.229.663.168a3.138,3.138,0,0,0,.547-.283,2.111,2.111,0,0,1,.631-.193A5.637,5.637,0,0,0,2.192,18.792Z" transform="translate(-1.932 -15.148)" fill="#7ad1f6"/>
              <path id="Path_336" data-name="Path 336" d="M5.218,15.816c-.678-.379-1.722-.616-2.251.062-.589.753.61,1.516,1.208,1.709s1.208.256,1.793.448A3.5,3.5,0,0,1,7,18.574,9.162,9.162,0,0,0,5.218,15.816Z" transform="translate(-1.853 -15.448)" fill="#7ad1f6"/>
            </g>
          </g>
          <g id="Group_8511" data-name="Group 8511" transform="translate(29.813 47.43)">
            <path id="Path_337" data-name="Path 337" d="M37.917,63.236c-.368-.8-1.051-1.174-1.594-1.821-.036-.044-.068-.088-.1-.135a14.925,14.925,0,0,1-.681-3.064C35.2,56.606,34.9,55,34.514,53.4a45.659,45.659,0,0,0-1.285-4.464A10.42,10.42,0,0,0,31.4,45.242h0a.132.132,0,0,0-.219-.128,4.639,4.639,0,0,1-.9.5c-.167.092-.3.246-.456.348-.124.088-.281.123-.411.2a.182.182,0,0,0-.088.2.058.058,0,0,0-.027.094,5.193,5.193,0,0,1,.925,1.77,15.389,15.389,0,0,1,.675,2.038,33.636,33.636,0,0,1,1.191,4.6c.168,1.361.39,2.741.633,4.091.15.817.332,1.628.424,2.454a2.992,2.992,0,0,1-.039.865,3.957,3.957,0,0,0-.445.839,4.492,4.492,0,0,0-.42,2.237c.037.226.108.583.386.652a.418.418,0,0,0,.5-.154,2.652,2.652,0,0,0,.267-1.022.811.811,0,0,1,.57-.745,5.02,5.02,0,0,1,.521.764,4.3,4.3,0,0,1,.526,2.066c.01.592-.051,1.173,0,1.766.015.19.012.669.227.769.533.25.773-.566.863-1.084.368.078.674-.457.838-.877a.851.851,0,0,0,.81-.6C39.223,66.493,38.336,64.144,37.917,63.236Z" transform="translate(-29.287 -45.08)" fill="#f3d9bf"/>
            <path id="Path_338" data-name="Path 338" d="M31.957,46.766c.123-.05.245-.092.367-.136a5.957,5.957,0,0,0-.924-1.387h0a.132.132,0,0,0-.219-.128,4.639,4.639,0,0,1-.9.5c-.167.092-.3.246-.456.348-.124.088-.281.123-.411.2a.182.182,0,0,0-.088.2.058.058,0,0,0-.027.094,3.318,3.318,0,0,1,.7,1.206A8.91,8.91,0,0,1,31.957,46.766Z" transform="translate(-29.287 -45.08)" fill="#f3d9bf" style="mix-blend-mode: multiply;isolation: isolate"/>
            <path id="Path_339" data-name="Path 339" d="M35.547,65.678a5.015,5.015,0,0,0-.35-1.9c-.007-.013-.025,0-.021.007a7.847,7.847,0,0,1,.037,3.785c-.013.038.039.059.062.027A3.455,3.455,0,0,0,35.547,65.678Z" transform="translate(-28.757 -43.4)" fill="#c29369"/>
            <path id="Path_340" data-name="Path 340" d="M36.23,62.935a.05.05,0,0,0-.092.035,6.762,6.762,0,0,1,.351,1.372,3.432,3.432,0,0,1-.308,1.69c-.012.023.024.056.046.033a2.152,2.152,0,0,0,.375-1.327A2.842,2.842,0,0,0,36.23,62.935Z" transform="translate(-28.671 -43.478)" fill="#c29369"/>
            <path id="Path_341" data-name="Path 341" d="M37,62.6a.031.031,0,0,0-.053.033,2.752,2.752,0,0,1,.385,1.263,4.236,4.236,0,0,1-.277,1.321.056.056,0,0,0,.1.041A2.669,2.669,0,0,0,37,62.6Z" transform="translate(-28.599 -43.507)" fill="#c29369"/>
          </g>
          <g id="Group_8512" data-name="Group 8512" transform="translate(8.087 35.761)">
            <path id="Path_342" data-name="Path 342" d="M12,57.515S9.134,67.7,9.366,68.022l8.748,1.018s1.759-4.862,1.759-4.723.325,4.723.325,4.723,8.612-.88,8.934-1.3-.185-8.844-.185-8.844Z" transform="translate(-9.353 -32.294)" fill="#3b4232"/>
            <path id="Path_343" data-name="Path 343" d="M26.262,65.542c-.049-2.287-.128-4.568-.136-6.854l-3.709-.3A4.121,4.121,0,0,0,24,61.03c.725.456,1.63.488,1.75,1.488a53.755,53.755,0,0,1,.3,5.586c.1-.014.191-.033.282-.044C26.3,67.218,26.279,66.381,26.262,65.542Z" transform="translate(-8.179 -32.216)" fill="#293022"/>
            <path id="Path_344" data-name="Path 344" d="M28.759,58.9,11.816,57.515s-.146.519-.371,1.33c-.037.138,1.205.68,1.342.739a25.078,25.078,0,0,0,6.085,1.646c1.679.256,3.393-.078,5.059.2a2.6,2.6,0,0,1,2.308,1.948,11.4,11.4,0,0,1,.328,3.039,3.958,3.958,0,0,1-.516,1.908,11.571,11.571,0,0,0,2.893-.581C29.269,67.328,28.759,58.9,28.759,58.9Z" transform="translate(-9.165 -32.294)" fill="#3b4232" opacity="0.4" style="mix-blend-mode: multiply;isolation: isolate"/>
            <path id="Path_345" data-name="Path 345" d="M19.33,63.752l-.005-.015c-1.475,1.381-2.713,3.071-4.179,4.459l2.448.286s1.544-4.258,1.738-4.69C19.331,63.78,19.33,63.768,19.33,63.752Z" transform="translate(-8.832 -31.735)" fill="#3b4232" opacity="0.4" style="mix-blend-mode: multiply;isolation: isolate"/>
            <path id="Path_346" data-name="Path 346" d="M10.045,36.424a41.026,41.026,0,0,1,.693,5.766l3.577-.113S9.988,53.326,10.1,59.785c0,0,8.191,4.9,19.787,1.787,0,0,0-12.344-.347-15.343L30.7,48.363a46.307,46.307,0,0,1,5.341-2.048S32.708,33.9,22.332,35.442Z" transform="translate(-9.291 -34.289)" fill="#646fb3"/>
            <path id="Path_347" data-name="Path 347" d="M14.222,41.938a15.625,15.625,0,0,1,1.257-2.516c-1.247.177-2.517.243-3.751.473-.375.07-.751.145-1.127.219a10.6,10.6,0,0,1,.088,1.707l3.577-.113s-.132.342-.349.942C14.02,42.412,14.125,42.178,14.222,41.938Z" transform="translate(-9.241 -33.92)" fill="#646fb3" opacity="0.5" style="mix-blend-mode: multiply;isolation: isolate"/>
            <path id="Path_348" data-name="Path 348" d="M34.642,46.053a19.472,19.472,0,0,0-4.517-7.825c.138.153.272.312.4.48a30.854,30.854,0,0,1,2.446,4.076,5.618,5.618,0,0,1,.893,2.62.179.179,0,0,1-.129.167c-.937.383-1.976.578-2.888,1.017-.669.323-1.369.557-1.776-.258a42.048,42.048,0,0,0-3.055-5.082c.323,3.326-.118,6.819-.213,10.058-.081,2.785-.219,5.575-.223,8.361,0,.737.022,1.5.01,2.272.942-.156,1.906-.362,2.9-.629,0,0,0-12.344-.347-15.343L29.3,48.1A46.307,46.307,0,0,1,34.642,46.053Z" transform="translate(-7.894 -34.027)" fill="#646fb3" opacity="0.5" style="mix-blend-mode: multiply;isolation: isolate"/>
            <path id="Path_349" data-name="Path 349" d="M20.006,40.653c1.771-.054,2.7-1.339,3.017-2.972a17.843,17.843,0,0,0,.405-2.368,11.814,11.814,0,0,0-1.694.129l-4.995.4C16.446,38.018,17.554,40.732,20.006,40.653Z" transform="translate(-8.693 -34.289)" fill="#646fb3" opacity="0.5" style="mix-blend-mode: multiply;isolation: isolate"/>
            <path id="Path_350" data-name="Path 350" d="M22.5,35.111a3.511,3.511,0,0,0-2.195-.737,4.1,4.1,0,0,0-2.433.664c-.686.481-.711.9-.59,1.674a6.179,6.179,0,0,0,.493,2.109,2.321,2.321,0,0,0,2.705,1.221c1.3-.454,1.748-1.551,2.059-2.79C22.688,36.651,23.056,35.615,22.5,35.111Z" transform="translate(-8.645 -34.373)" fill="#69307b"/>
            <path id="Path_351" data-name="Path 351" d="M21.537,34.906c-.259-.38-.927-.408-1.334-.4a3.94,3.94,0,0,0-1.444.22c-.436.2-.5.532-.65.947a3.577,3.577,0,0,0-.045,1.557,3.143,3.143,0,0,0,.621,1.517,1.357,1.357,0,0,0,1.966.027,3.1,3.1,0,0,0,1.12-2.357A2.251,2.251,0,0,0,21.537,34.906Z" transform="translate(-8.576 -34.361)" fill="#efc9a6"/>
          </g>
          <g id="Group_8516" data-name="Group 8516" transform="translate(5.29 10.295)">
            <g id="Group_8515" data-name="Group 8515">
              <path id="Path_352" data-name="Path 352" d="M36.906,26.192a1.878,1.878,0,0,0-1.563-1.256,1.945,1.945,0,0,0-1.4.412c-.392-.135-1.165-.3-1.343-.585-.2-.318.434-2.308.837-5.277a50.473,50.473,0,0,1,.98-5.218l-1.845,2.16-.087-2.248a12.963,12.963,0,0,0-1.556,2.45c-1.733-1.183-9.315-2.768-9.315-2.768a9.576,9.576,0,0,1,.864-2.854A9.843,9.843,0,0,0,20.4,14.18a11.476,11.476,0,0,0-3.865-.493,48.222,48.222,0,0,1-6.317-.692,80.864,80.864,0,0,1-1.787,8.828c-.98,3.285-2.193,6.691-1.384,8.363s3.807,4.96,8.016,6.922,10.5.4,15-3.808A24.736,24.736,0,0,0,32,30.274c.279-.478.352.4,2.125.1a5.726,5.726,0,0,0,2.556-2.137A2.733,2.733,0,0,0,36.906,26.192Z" transform="translate(-6.786 -11.007)" fill="#f3d9bf"/>
              <path id="Path_353" data-name="Path 353" d="M14.547,24.168a3.387,3.387,0,0,1-.805-.548,3.209,3.209,0,0,0,.889,1.727c1.087.979,1.944-.524,2.071-1.576A2.207,2.207,0,0,1,14.547,24.168Z" transform="translate(-6.161 -9.874)" fill="#efc9a6" opacity="0.5" style="mix-blend-mode: multiply;isolation: isolate"/>
              <path id="Path_354" data-name="Path 354" d="M36.9,26.192a1.878,1.878,0,0,0-1.563-1.256,1.945,1.945,0,0,0-1.4.412c-.392-.135-1.165-.3-1.343-.585-.2-.318.434-2.308.837-5.277a50.473,50.473,0,0,1,.98-5.218l-1.845,2.16-.087-2.248a12.963,12.963,0,0,0-1.556,2.45c-1.733-1.183-9.315-2.768-9.315-2.768a9.576,9.576,0,0,1,.864-2.854A9.843,9.843,0,0,0,20.4,14.18a11.476,11.476,0,0,0-3.865-.493,48.222,48.222,0,0,1-6.317-.692s-.092.638-.252,1.6a85.375,85.375,0,0,1,10.61.813,60.351,60.351,0,0,1,7.263,1.427A6.127,6.127,0,0,1,30.38,17.85a2.354,2.354,0,0,1,.531,1.433c.514-.755.617-1.721,1.154-2.472a.13.13,0,0,1,.235.029,4.612,4.612,0,0,1-.043,1.868c-.151.859-.313,1.708-.423,2.576A21.927,21.927,0,0,1,29,30.5a11.457,11.457,0,0,1-7.381,5.093,14.428,14.428,0,0,1-9.68-1.318,12.871,12.871,0,0,1-3.987-3.223,11.176,11.176,0,0,1-1.139-1.781,2.748,2.748,0,0,0,.237.918c.808,1.673,3.807,4.96,8.016,6.922s10.5.4,15-3.808A24.736,24.736,0,0,0,32,30.274c.279-.478.352.4,2.125.1a5.726,5.726,0,0,0,2.556-2.137A2.733,2.733,0,0,0,36.9,26.192Z" transform="translate(-6.784 -11.007)" fill="#efc9a6" opacity="0.5" style="mix-blend-mode: multiply;isolation: isolate"/>
              <g id="Group_8514" data-name="Group 8514" transform="translate(3.57 5.891)">
                <path id="Path_355" data-name="Path 355" d="M23.006,17.347a1.076,1.076,0,0,0-.885-.246,1.053,1.053,0,0,0-.774.258.268.268,0,0,0,.05.419,1.859,1.859,0,0,0,.556.128c.258.028.51.1.768.119A.4.4,0,0,0,23.006,17.347Z" transform="translate(-9.054 -16.352)" fill="#a95c26"/>
                <path id="Path_356" data-name="Path 356" d="M11.658,16.584a1.016,1.016,0,0,0-.753-.163,1.34,1.34,0,0,0-.755.214c-.161.122-.074.35.058.45a1.161,1.161,0,0,0,.6.157,5.175,5.175,0,0,0,.645.074A.4.4,0,0,0,11.658,16.584Z" transform="translate(-10.062 -16.413)" fill="#a95c26"/>
                <g id="Group_8513" data-name="Group 8513" transform="translate(1.634 12.34)">
                  <path id="Path_357" data-name="Path 357" d="M22.975,31.612a2.174,2.174,0,0,0-.009-.239A3.735,3.735,0,0,0,21.1,28.814a7.677,7.677,0,0,0-6.994-.441,3.965,3.965,0,0,0-2.547,3.442c.065,1.748,1.628,1.617,2.909,1.246a9.633,9.633,0,0,1,3.458-.8c1.237.112,2.088,1.26,3.33,1.268A1.867,1.867,0,0,0,22.975,31.612Z" transform="translate(-11.561 -27.735)" fill="#f2967d"/>
                  <path id="Path_358" data-name="Path 358" d="M22.071,29.9c-.013,0-.025.007-.039,0a7.147,7.147,0,0,0-5.994,2.326,4.225,4.225,0,0,1,1.491-.161c1.237.112,2.088,1.26,3.33,1.268a1.867,1.867,0,0,0,1.715-1.918,2.174,2.174,0,0,0-.009-.239A2.8,2.8,0,0,0,22.071,29.9Z" transform="translate(-11.159 -27.545)" fill="#ec6a5c"/>
                  <path id="Path_359" data-name="Path 359" d="M14.4,28.782c.662.841,1.9.814,2.859.8a4.261,4.261,0,0,0,2.591-.477,5.067,5.067,0,0,0,.572-.549,7.761,7.761,0,0,0-6.279-.3A1.6,1.6,0,0,0,14.4,28.782Z" transform="translate(-11.329 -27.735)" fill="#fff"/>
                </g>
              </g>
            </g>
          </g>
          <g id="Group_8517" data-name="Group 8517" transform="translate(3.283 91.84)">
            <path id="Path_360" data-name="Path 360" d="M20.287,93.249a6.007,6.007,0,0,0,2.289-.34c.217-.066.44-.131.66-.194.023-.011.048-.02.071-.029,1.127-.45,2.232-.944,3.33-1.466a17.413,17.413,0,0,0,1.682-.888c.134-.1.267-.192.405-.277.015-.011.032-.021.047-.033.143-.1.281-.209.415-.324v0a1.176,1.176,0,0,0,.266-1.205c-.126-.579-.369-1.537-1-1.768a.657.657,0,0,0-.668.024c-.6.4-.924.392-1.286-.2-.313-.51-.583-.847-1.22-.671a1.21,1.21,0,0,0-.752.672c-.085.12-.159.248-.231.366a3.442,3.442,0,0,1-1.04.887c-.371.267-.754.529-1.147.764-.344.207-.679.437-1.03.634-.377.21-.777.369-1.156.571a3.6,3.6,0,0,0-1.562,1.4,1.4,1.4,0,0,0,.268,1.482A2.316,2.316,0,0,0,20.287,93.249Z" transform="translate(-3.749 -85.828)" fill="#1f5364"/>
            <path id="Path_361" data-name="Path 361" d="M17.638,89.2a6.456,6.456,0,0,0-.154-1.793.624.624,0,0,0-.681-.456c-.278.072-.424.46-.725.466a1.915,1.915,0,0,1-.378-.045,1.747,1.747,0,0,0-1.878-.864,2.36,2.36,0,0,0-.973.611c-.2.116-.409.23-.614.337a9.917,9.917,0,0,1-1.761.8c-.578.167-1.15.361-1.727.524-.7.2-1.406.306-2.1.525a2.333,2.333,0,0,0-1.682,1.807c-.166.932.568,1.459,1.369,1.675,1.745.465,4.107-.069,6.32-.648.956-.248,2.8-.761,3.731-1.114A1.619,1.619,0,0,0,17.638,89.2Z" transform="translate(-4.944 -85.771)" fill="#1f5364"/>
          </g>
          <g id="Group_8518" data-name="Group 8518" transform="translate(3.283 95.177)">
            <path id="Path_362" data-name="Path 362" d="M22.644,92.587a4.26,4.26,0,0,0-.246-1.958,2.164,2.164,0,0,0-1.317-1.361,2.138,2.138,0,0,0-.607-.069c-.184.087-.372.174-.549.268a3.6,3.6,0,0,0-1.562,1.4,1.4,1.4,0,0,0,.268,1.482,2.316,2.316,0,0,0,1.656.6,6.007,6.007,0,0,0,2.289-.34Z" transform="translate(-3.749 -88.862)" fill="#029bb3"/>
            <path id="Path_363" data-name="Path 363" d="M8.749,89.8A4.182,4.182,0,0,0,7.4,88.89c-.252.059-.506.122-.754.2A2.333,2.333,0,0,0,4.968,90.9c-.166.932.568,1.459,1.369,1.675A8.147,8.147,0,0,0,9.6,92.6,3.227,3.227,0,0,0,8.749,89.8Z" transform="translate(-4.944 -88.89)" fill="#029bb3"/>
          </g>
          <g id="Group_8519" data-name="Group 8519" transform="translate(3.674 94.518)">
            <path id="Path_364" data-name="Path 364" d="M27.152,90.009c-1.133.579-2.315,1.112-3.5,1.577a14.908,14.908,0,0,1-4.476,1.151c-.068,0-.131,0-.2.008a3.1,3.1,0,0,0,1.242.283,6.007,6.007,0,0,0,2.289-.34c.217-.066.44-.131.66-.194.023-.011.048-.02.071-.029,1.127-.45,2.232-.944,3.33-1.466a17.411,17.411,0,0,0,1.682-.888c.134-.1.267-.192.405-.277.015-.011.032-.021.047-.033.143-.1.281-.209.415-.324v0a1.169,1.169,0,0,0,.27-1.19A6.043,6.043,0,0,1,27.152,90.009Z" transform="translate(-4.074 -88.285)" fill="#164453"/>
            <path id="Path_365" data-name="Path 365" d="M15.875,90.353c-1.288.437-2.634.743-3.941,1.127a15.512,15.512,0,0,1-4.607.817A8.513,8.513,0,0,1,5.3,92a2.376,2.376,0,0,0,1,.522c1.745.465,4.107-.069,6.32-.648.956-.248,2.8-.761,3.731-1.114.815-.312,1.127-.678,1.217-1.308A5.284,5.284,0,0,1,15.875,90.353Z" transform="translate(-5.303 -88.18)" fill="#164453"/>
          </g>
          <g id="Group_8522" data-name="Group 8522" transform="translate(29.975 65.398)">
            <path id="Path_366" data-name="Path 366" d="M39.922,77.9c-.511-1.463-1.465-2.776-2.033-4.232a20.876,20.876,0,0,1-1.434-7.619,6.289,6.289,0,0,0-.86-3.679,1.739,1.739,0,0,0-1.105-.8c-.645-.021-1.04.771-1.329,1.241-1.615,2.642-1.5,6.209-1.218,9.18a14.4,14.4,0,0,0,3.216,8.369c1.241,1.407,2.646,1.974,4.234.681C40.207,80.373,40.232,78.793,39.922,77.9Z" transform="translate(-29.226 -61.567)" fill="#d29b7e"/>
            <path id="Path_367" data-name="Path 367" d="M39.915,77.9c-.511-1.463-1.465-2.776-2.033-4.232a20.876,20.876,0,0,1-1.434-7.619,6.289,6.289,0,0,0-.86-3.679,1.739,1.739,0,0,0-1.105-.8c-.645-.021-1.04.771-1.329,1.241a10.031,10.031,0,0,0-1.3,4.281c.15-.456.325-.9.514-1.336.5-1.131,1.06-2.522,2.369-2.889a.131.131,0,0,1,.159.159,21.826,21.826,0,0,0,.71,10.33c.26.845.646,1.621.959,2.445.09.235.391.817.227,1.089a9,9,0,0,1-1.144,1.276c-.409.433-.812.866-1.191,1.321.217.3.448.591.7.874,1.241,1.407,2.646,1.974,4.234.681C40.2,80.373,40.225,78.793,39.915,77.9Z" transform="translate(-29.218 -61.567)" fill="#d29b7e" opacity="0.4" style="mix-blend-mode: multiply;isolation: isolate"/>
            <path id="Path_368" data-name="Path 368" d="M51.669,99.79c-.015-.108-.029-.219-.05-.324-.538-3.07-2.535-5.716-3.488-8.664a17.86,17.86,0,0,0-.656-2.716c-.284-.538-.874-.6-1.433-.618a1.824,1.824,0,0,0-1.282.631c-.644.665-.514,1.766-.607,2.61a19.561,19.561,0,0,0,1.251,8.77,9.27,9.27,0,0,0,1.861,3.586,2.681,2.681,0,0,0,3.092.478C51.652,102.8,51.84,101.132,51.669,99.79Z" transform="translate(-28.122 -59.239)" fill="#d29b7e"/>
            <path id="Path_369" data-name="Path 369" d="M44.433,93.013c.269-.676,1.02-1.646,1.871-1.44,1.131.27,2.488,5.227,3.206,6.538a14.167,14.167,0,0,1,1.419,3.02A3.519,3.519,0,0,1,51,103a4.26,4.26,0,0,0,.667-3.211c-.015-.108-.029-.219-.05-.324-.538-3.07-2.535-5.716-3.488-8.664a17.86,17.86,0,0,0-.656-2.716c-.284-.538-.874-.6-1.433-.618a1.824,1.824,0,0,0-1.282.631c-.644.665-.514,1.766-.607,2.61a16.489,16.489,0,0,0-.017,3.368A5.966,5.966,0,0,1,44.433,93.013Z" transform="translate(-28.122 -59.239)" fill="#d29b7e" opacity="0.4" style="mix-blend-mode: multiply;isolation: isolate"/>
            <path id="Path_370" data-name="Path 370" d="M61.343,90.4c-.837-.9-1.735-1.761-2.64-2.595a13.939,13.939,0,0,0-2.66-2.077,2.029,2.029,0,0,0-1.089-.4,1.712,1.712,0,0,0-.96.242c-.318.228-.083.967.178,1.5a11.9,11.9,0,0,0,.8,4.06A20.653,20.653,0,0,0,57.551,96.2a5.934,5.934,0,0,0,3.757,2.527,2.413,2.413,0,0,0,1.662-.607,2.76,2.76,0,0,0,1.269-2.052C64.443,93.922,62.689,91.859,61.343,90.4Z" transform="translate(-27.243 -59.431)" fill="#d29b7e"/>
            <path id="Path_371" data-name="Path 371" d="M61.343,90.4c-.837-.9-1.735-1.761-2.64-2.595a13.939,13.939,0,0,0-2.66-2.077,2.029,2.029,0,0,0-1.089-.4,1.712,1.712,0,0,0-.96.242c-.318.228-.083.967.178,1.5a11.9,11.9,0,0,0,.8,4.06c.013.033.027.065.039.1,0-.08-.008-.158-.008-.241a2.734,2.734,0,0,1,.848-2.187c2.015-1.556,4.04,1.13,5.168,2.547a13.928,13.928,0,0,1,2.1,3.294,4.016,4.016,0,0,1,.385,3.022c-.01.021-.021.037-.032.058a2.882,2.882,0,0,0,.771-1.658C64.443,93.922,62.689,91.859,61.343,90.4Z" transform="translate(-27.243 -59.431)" fill="#d29b7e" opacity="0.4" style="mix-blend-mode: multiply;isolation: isolate"/>
            <path id="Path_372" data-name="Path 372" d="M66.331,76.057a2.865,2.865,0,0,0-.762-.711,5.154,5.154,0,0,0-2.4-.655,11.529,11.529,0,0,0-5.038.981,22.572,22.572,0,0,0-6.32,3.311,1.04,1.04,0,0,0-.405,1.238,2.064,2.064,0,0,0,1.479,1.142c1.138.317,2.421-.013,3.592.076,1.285.1,2.555.359,3.844.356,1.87,0,4.015-.313,5.436-1.642A3.141,3.141,0,0,0,66.331,76.057Z" transform="translate(-27.469 -60.389)" fill="#d29b7e"/>
            <path id="Path_373" data-name="Path 373" d="M66.331,75.955c-.036-.048-.076-.1-.116-.143a1.8,1.8,0,0,1-.326,1.394c-.7.859-2.036,1.006-3.058,1.161a9.871,9.871,0,0,1-4.45-.209,12.681,12.681,0,0,1-1.914-.877,9.615,9.615,0,0,0-1.1-.55,15.73,15.73,0,0,0-3.552,2.151,1.04,1.04,0,0,0-.405,1.238,2.064,2.064,0,0,0,1.479,1.142c1.138.317,2.421-.013,3.592.076,1.285.1,2.555.359,3.844.356,1.87,0,4.015-.313,5.436-1.642A3.141,3.141,0,0,0,66.331,75.955Z" transform="translate(-27.469 -60.286)" fill="#d29b7e" opacity="0.4" style="mix-blend-mode: multiply;isolation: isolate"/>
            <path id="Path_374" data-name="Path 374" d="M58.33,80.638a7.568,7.568,0,0,0-2.076-3.271,9.473,9.473,0,0,0-2.036-1.474,9.144,9.144,0,0,0-3.539-1,12.016,12.016,0,0,0-2.933.149,10.2,10.2,0,0,0-2.508.756,6.832,6.832,0,0,0-.972.562c-.246.17-.667.728-.927.793l-.1.024c-.461.129-.849.824-.973,1.244-.169.58.283,1,.545,1.441a3.639,3.639,0,0,1,.274,1.189c.082.471.225.933.319,1.4a19.2,19.2,0,0,0,1.422,4.259,17.163,17.163,0,0,0,1.218,2.072,6.025,6.025,0,0,0,1.432,1.577,3.729,3.729,0,0,0,1.8.742,8.771,8.771,0,0,0,2.476.04c2.878-.512,5.722-2.2,6.632-5.14a8.362,8.362,0,0,0,.4-2.538A9.761,9.761,0,0,0,58.33,80.638Z" transform="translate(-28.286 -60.371)" fill="#cf805f"/>
            <path id="Path_375" data-name="Path 375" d="M58.33,80.546a7.568,7.568,0,0,0-2.076-3.271,9.781,9.781,0,0,0-1.881-1.391c2.381,1.963,4.092,4.836,3.384,8.016a6.99,6.99,0,0,1-3.017,4.324c-1.538.993-3.684,1.888-5.533,1.46a.128.128,0,0,1-.092-.159,8.482,8.482,0,0,0,.118-4.834,11.761,11.761,0,0,0-2.3-3.949,11.344,11.344,0,0,0-3.412-2.729,7.066,7.066,0,0,0-.915-.377,2.657,2.657,0,0,0-.335.7c-.169.58.283,1,.545,1.441a3.639,3.639,0,0,1,.274,1.189c.082.471.225.933.319,1.4a19.2,19.2,0,0,0,1.422,4.259A17.163,17.163,0,0,0,46.045,88.7a6.025,6.025,0,0,0,1.432,1.577,3.729,3.729,0,0,0,1.8.742,8.771,8.771,0,0,0,2.476.04c2.878-.512,5.722-2.2,6.632-5.14a8.362,8.362,0,0,0,.4-2.538A9.761,9.761,0,0,0,58.33,80.546Z" transform="translate(-28.286 -60.28)" fill="#d29b7e" opacity="0.5" style="mix-blend-mode: multiply;isolation: isolate"/>
            <path id="Path_376" data-name="Path 376" d="M34.335,77.457a3.875,3.875,0,0,0-4.233.882,2.774,2.774,0,0,0,.328,3.9,3.5,3.5,0,0,0,1.885.833,2.8,2.8,0,0,0,1.194-.032.186.186,0,0,0,.106.015,2.046,2.046,0,0,0,.825-.419,1.825,1.825,0,0,0,.549-.487,2.332,2.332,0,0,0,.322-.693C35.816,80.143,35.765,78.147,34.335,77.457Z" transform="translate(-29.436 -60.166)" fill="#cf805f"/>
            <path id="Path_377" data-name="Path 377" d="M34.259,77.457a3.221,3.221,0,0,0-1.38-.3,1.188,1.188,0,0,1,.584.838.416.416,0,0,1-.336.5c-.474.076-.95-.035-1.38.256a1.959,1.959,0,0,0-.629,2.493c.086.187.53.792.158.974a.975.975,0,0,1-1-.058c.025.027.046.053.072.078a3.5,3.5,0,0,0,1.885.833,2.8,2.8,0,0,0,1.194-.032.186.186,0,0,0,.106.015,2.046,2.046,0,0,0,.825-.419,1.825,1.825,0,0,0,.549-.487,2.332,2.332,0,0,0,.322-.693C35.74,80.143,35.689,78.147,34.259,77.457Z" transform="translate(-29.36 -60.166)" fill="#d29b7e" opacity="0.5" style="mix-blend-mode: multiply;isolation: isolate"/>
            <path id="Path_378" data-name="Path 378" d="M41.072,90.532a.176.176,0,0,0-.008-.065c-.121-.315-.392-.409-.672-.575a6.536,6.536,0,0,0-1.18-.593,3.482,3.482,0,0,0-2.32-.017.058.058,0,0,0-.053-.014c-1.6.344-1.743,1.936-1.532,3.322.191,1.276,1.152,2.957,2.59,3.106a3.61,3.61,0,0,0,3.816-1.841A2.555,2.555,0,0,0,41.072,90.532Z" transform="translate(-28.915 -59.093)" fill="#cf805f"/>
            <path id="Path_379" data-name="Path 379" d="M41.072,90.532a.176.176,0,0,0-.008-.065c-.121-.315-.392-.409-.672-.575a6.536,6.536,0,0,0-1.18-.593,3.482,3.482,0,0,0-2.32-.017.058.058,0,0,0-.053-.014c-1.6.344-1.743,1.936-1.532,3.322.191,1.276,1.152,2.957,2.59,3.106a3.61,3.61,0,0,0,3.816-1.841A2.555,2.555,0,0,0,41.072,90.532Z" transform="translate(-28.915 -59.093)" fill="#cf805f"/>
            <path id="Path_380" data-name="Path 380" d="M41.072,90.532a.176.176,0,0,0-.008-.065c-.121-.315-.392-.409-.672-.575a6.536,6.536,0,0,0-1.18-.593,3.482,3.482,0,0,0-2.32-.017.058.058,0,0,0-.053-.014c-1.541.333-1.73,1.829-1.551,3.182.01-.025.019-.052.029-.078.169-.46.76-1.281,1.193-.551a3.2,3.2,0,0,1,.181.692A1.592,1.592,0,0,0,37.733,93.7a3.193,3.193,0,0,0,1.373.066c.312-.054.611-.193.926-.233.724-.1,1.029.471,1.135,1.088a4.056,4.056,0,0,0,.543-.764A2.555,2.555,0,0,0,41.072,90.532Z" transform="translate(-28.915 -59.093)" fill="#d29b7e" opacity="0.5" style="mix-blend-mode: multiply;isolation: isolate"/>
            <path id="Path_381" data-name="Path 381" d="M33.841,79.183a1.147,1.147,0,0,0-1.687-.155,1.5,1.5,0,0,0-.392,1.741,1.476,1.476,0,0,0,.452.625,1.643,1.643,0,0,0,.18.169c.518.436,1.272-.034,1.576-.487A1.9,1.9,0,0,0,33.841,79.183Z" transform="translate(-29.237 -60.024)" fill="#d29b7e" style="mix-blend-mode: multiply;isolation: isolate"/>
            <path id="Path_382" data-name="Path 382" d="M39.083,90.056A2.049,2.049,0,0,0,37.756,90a.07.07,0,0,0-.037.01,1.5,1.5,0,0,0-.192.088,1.076,1.076,0,0,0-.4.435,1.3,1.3,0,0,0-.345.8,2.138,2.138,0,0,0,.332,1.464,1.737,1.737,0,0,0,1.46.6,2.458,2.458,0,0,0,1.713-.744C41.131,91.529,40.191,90.441,39.083,90.056Z" transform="translate(-28.776 -59.019)" fill="#d29b7e" style="mix-blend-mode: multiply;isolation: isolate"/>
            <path id="Path_383" data-name="Path 383" d="M49.968,84.427a11.185,11.185,0,0,0-1.375-4.091,8.578,8.578,0,0,0-1.12-1.632c-2.7-2.916-7.669-3.882-11.12-1.817a8.464,8.464,0,0,0-1.792,13.467,10.407,10.407,0,0,0,2.6,2.118,9.385,9.385,0,0,0,6.282.945,8.329,8.329,0,0,0,6.528-8.99Z" transform="translate(-29.189 -60.289)" fill="#d29b7e"/>
            <path id="Path_384" data-name="Path 384" d="M49.968,84.187A11.185,11.185,0,0,0,48.593,80.1a8.578,8.578,0,0,0-1.12-1.632l-.015-.015a8.3,8.3,0,0,1,1.48,7,7.823,7.823,0,0,1-6.478,5.569,8.735,8.735,0,0,1-8.183-3.131,9.22,9.22,0,0,1-1.991-5.3,9.236,9.236,0,0,0,2.276,7.524,10.407,10.407,0,0,0,2.6,2.118,9.385,9.385,0,0,0,6.282.945,8.329,8.329,0,0,0,6.528-8.99Z" transform="translate(-29.188 -60.049)" fill="#d29b7e" style="mix-blend-mode: multiply;isolation: isolate"/>
            <g id="Group_8521" data-name="Group 8521" transform="translate(9.871 19.011)">
              <path id="Path_385" data-name="Path 385" d="M39.558,79.671a.57.57,0,1,0-.005.575A.627.627,0,0,0,39.558,79.671Z" transform="translate(-38.493 -78.976)" fill="#231f20"/>
              <path id="Path_386" data-name="Path 386" d="M41.058,86.561a.556.556,0,0,0-.01,1.112.556.556,0,1,0,.01-1.112Z" transform="translate(-38.313 -78.332)" fill="#231f20"/>
              <path id="Path_387" data-name="Path 387" d="M39.1,79.48a.218.218,0,0,0,0,.435A.218.218,0,0,0,39.1,79.48Z" transform="translate(-38.457 -78.968)" fill="#fff"/>
              <path id="Path_388" data-name="Path 388" d="M41.1,86.605a.258.258,0,0,0,0,.516A.258.258,0,0,0,41.1,86.605Z" transform="translate(-38.281 -78.328)" fill="#fff"/>
              <path id="Path_389" data-name="Path 389" d="M45.09,81.6a1.46,1.46,0,0,0,.434-.593,1.747,1.747,0,0,0-.9-2c-.02-.015-.045.017-.026.033.546.5,1.12,1.361.506,2.047a5.181,5.181,0,0,1-1.642.926.147.147,0,0,0,.07.272c.283-.019,1.587-.593,2.443.109a1.61,1.61,0,0,1,.206,2.162.049.049,0,1,0,.069.069C47.386,83.7,46.386,81.778,45.09,81.6Z" transform="translate(-38.053 -79.01)" fill="#9e7760"/>
              <path id="Path_390" data-name="Path 390" d="M43.539,81.523a1.133,1.133,0,0,0-.729-.435.609.609,0,0,0-.266.056.5.5,0,0,0-.349.269,1.677,1.677,0,0,0-.04.923,1.418,1.418,0,0,0,.3.679.6.6,0,0,0,.2.2l.005,0a.119.119,0,0,0,.026.016.666.666,0,0,0,.759-.076.652.652,0,0,0,.18-.351c.042-.15.13-.289.169-.444A.859.859,0,0,0,43.539,81.523Z" transform="translate(-38.168 -78.824)" fill="#231f20"/>
              <g id="Group_8520" data-name="Group 8520" transform="translate(3.969 2.413)">
                <path id="Path_391" data-name="Path 391" d="M42.74,81.366s-.032-.057-.041-.076a.135.135,0,0,0-.121-.06c-.3-.059-.458.4-.441.638a.252.252,0,0,0,.492.068,1.762,1.762,0,0,0,.1-.351.509.509,0,0,0,.027-.144A.128.128,0,0,0,42.74,81.366Z" transform="translate(-42.135 -81.224)" fill="#fff"/>
                <path id="Path_392" data-name="Path 392" d="M42.652,81.285l.005.005C42.646,81.275,42.646,81.275,42.652,81.285Z" transform="translate(-42.089 -81.219)" fill="#fff"/>
              </g>
            </g>
          </g>
          <path id="Path_393" data-name="Path 393" d="M42.863,12.577l1.731.228s-.981-1.266-1.846-1.326c0,0,.116-1.96.171-2.306l-1.208,1.674A17.116,17.116,0,0,0,32.134,3c-7.1-2.538-13.96-1.27-15.4.344,0,0-5.712-.98-11.767,8.479l3.865,2.134s1.729-3.578.863-.116h.692a48.221,48.221,0,0,0,6.317.692,11.476,11.476,0,0,1,3.865.493,9.843,9.843,0,0,1,2.077-3.173,9.576,9.576,0,0,0-.864,2.854S29.363,16.3,31.1,17.479a12.963,12.963,0,0,1,1.556-2.45l.087,2.248,1.845-2.16a50.473,50.473,0,0,0-.98,5.218c-.4,2.969-1.041,4.959-.837,5.277s1.154.489,1.47.636-.6,2.362-2.075,4.874a24.736,24.736,0,0,1-1.932,3.025s6.05,2.453,11.76-4.526S44.594,13.73,42.863,12.577Z" transform="translate(-1.66 -1.561)" fill="#ea7b24"/>
          <path id="Path_394" data-name="Path 394" d="M43.88,13.527A16.35,16.35,0,0,1,42.221,21.2c-.8,1.869-1.966,4.637-4.08,5.341a.174.174,0,0,1-.211-.121c-.412-3.009-.393-6.078-1.028-9.052-.56,1.881-.822,3.849-1.559,5.677-.068.167-.352.167-.339-.045.092-1.423.314-2.831.457-4.25.122-1.225.109-2.428.119-3.655a21.928,21.928,0,0,0-.395-6.092c-.511,1.833-.994,3.8-2.287,5.232-.095.1-.314.027-.3-.123.172-1.31.428-2.607.668-3.906-.519.972-1.053,1.932-1.584,2.9-.339.611-.725,1.793-1.524,1.954A3.473,3.473,0,0,1,28.2,14.7c-.739-.31-1.465-.657-2.188-1-.513-.247-1.317-.577-1.508-1.186a2.891,2.891,0,0,1,.421-2.223,7.569,7.569,0,0,0-.6.882A6.765,6.765,0,0,1,22.971,13.2a.175.175,0,0,1-.29-.167,15.951,15.951,0,0,1,2.1-5.513,12.909,12.909,0,0,0-3.973,5.15.17.17,0,0,1-.168.126c-3.312-.278-6.595-.89-9.927-.973a.176.176,0,0,1-.166-.219,13.374,13.374,0,0,1,3.3-5.723,13.744,13.744,0,0,0-5.509,5.726.173.173,0,0,1-.238.062c-.542-.39-.93-.937-1.493-1.3a.178.178,0,0,1-.062-.235A14.712,14.712,0,0,1,9.3,6.174a25.56,25.56,0,0,0-4.332,5.263l3.865,2.134s1.729-3.578.863-.116h.692a48.222,48.222,0,0,0,6.317.692,11.476,11.476,0,0,1,3.865.493,9.843,9.843,0,0,1,2.077-3.173,9.576,9.576,0,0,0-.864,2.854s7.582,1.586,9.315,2.768a12.963,12.963,0,0,1,1.556-2.45l.087,2.248,1.845-2.16a50.473,50.473,0,0,0-.98,5.218c-.4,2.969-1.041,4.959-.837,5.277s1.154.489,1.47.636-.6,2.362-2.075,4.874A24.736,24.736,0,0,1,30.23,33.76s6.05,2.453,11.76-4.526A15.014,15.014,0,0,0,43.88,13.527Z" transform="translate(-1.66 -1.173)" fill="#ea7b24" opacity="0.4" style="mix-blend-mode: multiply;isolation: isolate"/>
          <path id="Path_395" data-name="Path 395" d="M31.371,24.889s1.363-2.142,3.958-.13-1.035,6.553-6.1,4.349Z" transform="translate(0.521 0.446)" fill="#f3d9bf"/>
          <path id="Path_396" data-name="Path 396" d="M31.371,24.889s1.363-2.142,3.958-.13-1.035,6.553-6.1,4.349Z" transform="translate(0.521 0.446)" fill="#efc9a6" opacity="0.5" style="mix-blend-mode: multiply;isolation: isolate"/>
          <path id="Path_397" data-name="Path 397" d="M10.963,20.168a1.486,1.486,0,0,1,.945.492,2.434,2.434,0,0,0-1.516.05.3.3,0,0,0-.123.144,3.658,3.658,0,0,1,1.1-.022,1.736,1.736,0,0,1,.451.1,2.633,2.633,0,0,1,.786.389c.046-.058.078-.126.06-.163a1.933,1.933,0,0,0-1.957-1.365,2.157,2.157,0,0,0-1.141.359c-.059.043-.244.166-.435.311a2.913,2.913,0,0,0-.426.619A2.789,2.789,0,0,1,10.963,20.168Z" transform="translate(-1.324 0.077)" fill="#c29369"/>
          <path id="Path_398" data-name="Path 398" d="M21.34,20.927a4.781,4.781,0,0,1,1.783-.4,3.859,3.859,0,0,1,1.933.4,2.9,2.9,0,0,0-1.022-.668,5.1,5.1,0,0,0-.7-.08,4.743,4.743,0,0,0-3.058,1.069.4.4,0,0,0-.078.1,4.7,4.7,0,0,1,3.529.318.087.087,0,0,0-.02-.068A2.7,2.7,0,0,0,21.34,20.927Z" transform="translate(-0.291 0.112)" fill="#c29369"/>
          <path id="Path_399" data-name="Path 399" d="M16.184,23.507c-.185-.075-.516-.271-.878-.448a.743.743,0,0,0,.033-.149.651.651,0,0,1,.065-.161c.053-.142.113-.282.177-.416.044-.094-.071-.046-.1,0-.078.148-.142.316-.233.457a.685.685,0,0,0-.092.2c-.618-.279-1.289-.457-1.519.113a2.726,2.726,0,0,0,1.149,3.053c.076.046.24-.143.192-.215a4.627,4.627,0,0,1-1.092-2.333c-.023-.345-.108-.463.3-.47a4.279,4.279,0,0,1,.791.1c.411.073.736.3,1.124.409C16.148,23.656,16.242,23.529,16.184,23.507Z" transform="translate(-0.892 0.301)" fill="#c29369"/>
          <path id="Path_400" data-name="Path 400" d="M34.142,25.385c-.48-.377-1.192-.063-1.629.207a3,3,0,0,0-1.148,1.194c-.16.336-.438,1.106-.177,1.435.038.048.136-.09.132-.129a1.976,1.976,0,0,1,.36-1.341c.325.465,1.731.808,1.951.851.048.012.138-.112.081-.131a5.416,5.416,0,0,1-1.242-.571,2.049,2.049,0,0,1-.561-.453,2.9,2.9,0,0,1,.555-.5,1.432,1.432,0,0,1,1.387-.2c.174.075.763.579.712.823-.017.1.1-.005.118-.04C34.848,26.15,34.426,25.608,34.142,25.385Z" transform="translate(0.687 0.564)" fill="#c29369"/>
        </g>
        <path id="Path_401" data-name="Path 401" d="M38.11,17.59a.728.728,0,0,0-.048-.111,1.641,1.641,0,0,0-2.043-.691,2.878,2.878,0,0,0-1.574,1.386,1.407,1.407,0,0,0-.136.283.177.177,0,0,0,0,.083,5.233,5.233,0,0,1,.614-.066,2.173,2.173,0,0,1,.815-.07,2.634,2.634,0,0,1,.291.041,7.893,7.893,0,0,0,1.2-.1A1.948,1.948,0,0,0,38.11,17.59Z" transform="translate(0.977 -0.203)" fill="#7ad1f6"/>
        <path id="Path_402" data-name="Path 402" d="M39.575,21.331a2.993,2.993,0,0,0-1.264-.4,1.178,1.178,0,0,0-.206-.044c.111.243.225.494.343.737a.334.334,0,0,1,.026.032,2.306,2.306,0,0,0,.439.537c.26.2.808.368,1.023.005C40.114,21.909,39.816,21.484,39.575,21.331Z" transform="translate(1.318 0.176)" fill="#7ad1f6"/>
        <path id="Path_403" data-name="Path 403" d="M34,20.6a2.142,2.142,0,0,1,.437.434,5.83,5.83,0,0,1,.4.571,11.037,11.037,0,0,0,1.532,1.408.539.539,0,0,0,.558-.329c.328-.6-.376-1.435-.761-1.812a2.874,2.874,0,0,0-2.137-.822,1.534,1.534,0,0,0-.409.033C33.746,20.252,33.873,20.426,34,20.6Z" transform="translate(0.916 0.099)" fill="#7ad1f6"/>
      </g>
    </g>
  </g>
</svg>
