<svg xmlns="http://www.w3.org/2000/svg" xmlns:xlink="http://www.w3.org/1999/xlink" width="137" height="175" viewBox="0 0 137 175">
  <defs>
    <filter id="Rectangle_3" x="0" y="0" width="137" height="175" filterUnits="userSpaceOnUse">
      <feOffset dy="3" input="SourceAlpha"/>
      <feGaussianBlur stdDeviation="3" result="blur"/>
      <feFlood flood-opacity="0.161"/>
      <feComposite operator="in" in2="blur"/>
      <feComposite in="SourceGraphic"/>
    </filter>
  </defs>
  <g id="Component_11_5" data-name="Component 11 – 5" transform="translate(9 6)">
    <g transform="matrix(1, 0, 0, 1, -9, -6)" filter="url(#Rectangle_3)">
      <rect id="Rectangle_3-2" data-name="Rectangle 3" width="119" height="157" rx="27" transform="translate(9 6)" fill="#cbe3d0"/>
    </g>
    <g id="Path_321" data-name="Path 321" transform="translate(6 8)" fill="none" opacity="0.5">
      <path d="M27,0H92a27,27,0,0,1,27,27V130a27,27,0,0,1-27,27H27A27,27,0,0,1,0,130V27A27,27,0,0,1,27,0Z" stroke="none"/>
      <path d="M 27 2 C 23.62413024902344 2 20.35032653808594 2.660720825195313 17.26947784423828 3.96380615234375 C 14.29273986816406 5.222854614257813 11.61893463134766 7.025711059570313 9.32232666015625 9.32232666015625 C 7.025718688964844 11.61894226074219 5.222846984863281 14.29273986816406 3.96380615234375 17.26948547363281 C 2.660720825195313 20.35032653808594 2 23.62413024902344 2 27 L 2 130 C 2 133.3758544921875 2.660720825195313 136.6496734619141 3.96380615234375 139.7304992675781 C 5.222846984863281 142.7072601318359 7.025718688964844 145.3810729980469 9.32232666015625 147.6776733398438 C 11.61893463134766 149.9742584228516 14.29273986816406 151.7771301269531 17.26947784423828 153.0361938476563 C 20.35032653808594 154.3392791748047 23.62413024902344 155 27 155 L 92 155 C 95.37586975097656 155 98.64967346191406 154.3392791748047 101.7305221557617 153.0361938476563 C 104.7072601318359 151.7771301269531 107.3810653686523 149.9742584228516 109.6776733398438 147.6776733398438 C 111.9742813110352 145.3810729980469 113.7771530151367 142.7072601318359 115.0361938476563 139.7304992675781 C 116.3392791748047 136.6496734619141 117 133.3758544921875 117 130 L 117 27 C 117 23.62413024902344 116.3392791748047 20.35032653808594 115.0361938476563 17.26948547363281 C 113.7771530151367 14.29273986816406 111.9742813110352 11.61894226074219 109.6776733398438 9.32232666015625 C 107.3810653686523 7.025711059570313 104.7072601318359 5.222854614257813 101.7305221557617 3.96380615234375 C 98.64967346191406 2.660720825195313 95.37586975097656 2 92 2 L 27 2 M 27 0 L 92 0 C 106.9116973876953 0 119 12.08830261230469 119 27 L 119 130 C 119 144.9116668701172 106.9116973876953 157 92 157 L 27 157 C 12.08830261230469 157 0 144.9116668701172 0 130 L 0 27 C 0 12.08830261230469 12.08830261230469 0 27 0 Z" stroke="none" fill="#333"/>
    </g>
    <g id="Group_8528" data-name="Group 8528" transform="translate(-43.856 -42.18)">
      <g id="Group_8536" data-name="Group 8536" transform="translate(81.444 85.079)">
        <g id="Group_8543" data-name="Group 8543" transform="translate(0 0)">
          <g id="Group_8528-2" data-name="Group 8528" transform="translate(0 47.054)">
            <path id="Path_673" data-name="Path 673" d="M219.044,292.264h0Z" transform="translate(-201.184 -292.264)" fill="#1e2d77"/>
            <path id="Path_674" data-name="Path 674" d="M221.424,298.009c6.137,0,10.449-4.881,10.452-4.885-.593-.183-1.182-.368-1.754-.548h0a12.824,12.824,0,0,1-8.437,3.382l-.432.812-.422-.857a12.9,12.9,0,0,1-7.571-3.651c-.647.2-1.325.406-2.015.62C212.623,294.368,216.505,298.009,221.424,298.009Z" transform="translate(-195.399 -292.264)" fill="#00637a"/>
            <path id="Path_675" data-name="Path 675" d="M149.941,318.191c0-9.292-.889-17.162,7.64-20.844,1.769-.764,5.109-1.732,8.179-2.683,1.379,1.484,5.261,5.126,10.18,5.126,6.137,0,10.449-4.881,10.452-4.885,2.442.756,4.988,1.344,6.564,1.882,11.048,3.772,9.369,12.819,9.369,21.4H149.941Z" transform="translate(-149.915 -294.043)" fill="#008cab"/>
          </g>
          <g id="Group_8529" data-name="Group 8529" transform="translate(17.86 45.537)">
            <path id="Path_676" data-name="Path 676" d="M248.773,307.253l.432-.812c-.29,0-.575-.019-.854-.044Z" transform="translate(-240.779 -301.229)" fill="none"/>
            <path id="Path_677" data-name="Path 677" d="M251.656,291.607a12.823,12.823,0,0,0,8.437-3.382h0c-3.076-.97-5.662-1.829-5.662-1.829Z" transform="translate(-243.23 -286.395)" fill="#fff"/>
            <path id="Path_678" data-name="Path 678" d="M226.616,291.562l-2.544-5.167s-2.216.656-5.027,1.516h0A12.9,12.9,0,0,0,226.616,291.562Z" transform="translate(-219.044 -286.395)" fill="#fff"/>
          </g>
          <path id="Path_679" data-name="Path 679" d="M184.264,148.433s-12.079-6.6-9.909-22.51a19.976,19.976,0,0,1,5.154-10.611c4.023-4.1,14.362-8.63,21.422-1.214a5.536,5.536,0,0,1,5.935.735c7.49,5.577,9.44,23.809-2.992,33.05" transform="translate(-167.847 -110.137)" fill="#734d25"/>
          <path id="Path_680" data-name="Path 680" d="M243.591,273.672l-3.453,3.214-3.573-3.214v-8.656h7.026Z" transform="translate(-214.178 -225.002)" fill="#f5d5af"/>
          <path id="Path_681" data-name="Path 681" d="M220.389,154.619c0,9.582-7.126,17.35-15.916,17.35s-15.917-7.767-15.917-17.35,7.126-17.351,15.917-17.351S220.389,145.036,220.389,154.619Z" transform="translate(-178.573 -130.259)" fill="#ffddb6"/>
          <path id="Path_682" data-name="Path 682" d="M225.172,150.217a18.2,18.2,0,0,1,3.939,11.42c0,9.582-7.126,17.35-15.917,17.35a14.988,14.988,0,0,1-9.393-3.345,15.355,15.355,0,0,0,11.978,5.931c8.79,0,15.916-7.767,15.916-17.35A17.861,17.861,0,0,0,225.172,150.217Z" transform="translate(-189.88 -139.862)" fill="#f5d5af"/>
          <path id="Path_683" data-name="Path 683" d="M215.732,140.734c-4.255-4.656-10.119-4.962-14.313-4.27-4.3.71-15.711,6.724-12.84,20.959a11.511,11.511,0,0,0,5.6-8.651c.459-3.067,5.323.793,9.991.946,4.371.143,9.041-4.291,10.347-.946.939,2.405-.28,6.45,5.548,8.709C220.067,157.482,222.284,147.9,215.732,140.734Z" transform="translate(-178.251 -129.455)" fill="#734d25"/>
          <path id="Path_684" data-name="Path 684" d="M223.571,281.728l-4.527,2.722,6.747,5.745,1.353-.915Z" transform="translate(-201.184 -237.397)" fill="#f2f2f2"/>
          <path id="Path_685" data-name="Path 685" d="M254.219,281.728l5.124,3.035-7.316,5.433-1.381-.915Z" transform="translate(-224.621 -237.397)" fill="#f2f2f2"/>
          <g id="Group_8530" data-name="Group 8530" transform="translate(7.624 5.174)">
            <path id="Path_686" data-name="Path 686" d="M179.428,148.53c-.01-.334-.181-8.256,5.042-13.635,3.048-3.139,7.3-4.73,12.642-4.73,9.74,0,14.355,5,16.511,9.192a22.047,22.047,0,0,1,2.353,9.162h-.723a21.727,21.727,0,0,0-2.284-8.854c-3.005-5.824-8.34-8.778-15.857-8.778-5.138,0-9.217,1.518-12.124,4.511-5.012,5.162-4.84,13.031-4.838,13.11Z" transform="translate(-179.425 -130.165)" stroke="#000" stroke-miterlimit="10" stroke-width="2"/>
          </g>
          <g id="Group_8531" data-name="Group 8531" transform="translate(7.552 27.968)">
            <path id="Path_687" data-name="Path 687" d="M192.844,229.911c-5.334,0-9.2-1.365-11.484-4.059a9.872,9.872,0,0,1-2.137-7.46l.714.117a9.3,9.3,0,0,0,1.981,6.884c2.143,2.519,5.82,3.8,10.927,3.8Z" transform="translate(-179.145 -218.392)" fill="#0b1016"/>
          </g>
          <g id="Group_8534" data-name="Group 8534" transform="translate(5.071 18.125)">
            <g id="Group_8532" data-name="Group 8532">
              <path id="Path_688" data-name="Path 688" d="M174.316,194.993h0a4.773,4.773,0,0,1-4.773-4.773v-.537a4.774,4.774,0,0,1,4.773-4.774h0" transform="translate(-169.543 -183.716)" fill="#fdbf1e"/>
              <path id="Path_689" data-name="Path 689" d="M172.05,187.123a4.752,4.752,0,0,0-1.06,3v.537a4.774,4.774,0,0,0,3.326,4.548v1.43a4.773,4.773,0,0,1-4.773-4.773v-.537A4.772,4.772,0,0,1,172.05,187.123Z" transform="translate(-169.543 -185.358)" fill="#d6a219"/>
              <path id="Path_690" data-name="Path 690" d="M185.635,191.726a1.036,1.036,0,0,1-1.035,1.036h0a1.036,1.036,0,0,1-1.036-1.036v-10.4a1.036,1.036,0,0,1,1.036-1.036h0a1.036,1.036,0,0,1,1.035,1.036Z" transform="translate(-179.941 -180.292)" fill="#0b1016"/>
            </g>
            <g id="Group_8533" data-name="Group 8533" transform="translate(35.963)">
              <path id="Path_691" data-name="Path 691" d="M312.307,184.909h0a4.773,4.773,0,0,1,4.773,4.774v.537a4.773,4.773,0,0,1-4.773,4.773h0" transform="translate(-311.386 -183.716)" fill="#fdbf1e"/>
              <path id="Path_692" data-name="Path 692" d="M314.573,187.123a4.75,4.75,0,0,1,1.06,3v.537a4.774,4.774,0,0,1-3.326,4.548v1.43a4.773,4.773,0,0,0,4.773-4.773v-.537A4.772,4.772,0,0,0,314.573,187.123Z" transform="translate(-311.386 -185.358)" fill="#d6a219"/>
              <path id="Path_693" data-name="Path 693" d="M308.743,181.328a1.036,1.036,0,0,1,1.036-1.036h0a1.036,1.036,0,0,1,1.036,1.036v10.4a1.036,1.036,0,0,1-1.036,1.036h0a1.036,1.036,0,0,1-1.036-1.036Z" transform="translate(-308.743 -180.292)" fill="#0b1016"/>
            </g>
          </g>
          <path id="Path_694" data-name="Path 694" d="M232.227,256.087a1.913,1.913,0,1,1-1.913-1.913A1.913,1.913,0,0,1,232.227,256.087Z" transform="translate(-208.123 -216.961)" fill="#0b1016"/>
          <path id="Path_695" data-name="Path 695" d="M231.888,255.066a1.914,1.914,0,0,1-2.594,2.594,1.913,1.913,0,1,0,2.594-2.594Z" transform="translate(-208.786 -217.623)" fill="#4d4d4d" opacity="0.5"/>
        </g>
      </g>
      <g id="Group_8539" data-name="Group 8539" transform="translate(130.266 105.822)">
        <path id="Path_698" data-name="Path 698" d="M353.771,190.424a12.208,12.208,0,0,0-11.049,17.4l-3.835,7.328,7.33-2.935a12.2,12.2,0,1,0,7.554-21.789Z" transform="translate(-338.887 -190.424)" fill="#5d5d5d"/>
        <path id="Path_699" data-name="Path 699" d="M364.381,214.327a12.2,12.2,0,0,1-19.247,13.088l-6.248,5.46h0l7.33-2.935a12.2,12.2,0,0,0,18.165-15.613Z" transform="translate(-338.887 -208.151)" fill="#545454"/>
        <g id="Group_8538" data-name="Group 8538" transform="translate(8.6 10.9)">
          <path id="Path_700" data-name="Path 700" d="M375.1,234.076a1.461,1.461,0,1,1-1.461-1.461A1.461,1.461,0,0,1,375.1,234.076Z" transform="translate(-372.176 -232.615)" fill="#fff"/>
          <path id="Path_701" data-name="Path 701" d="M392.892,234.076a1.461,1.461,0,1,1-1.461-1.461A1.461,1.461,0,0,1,392.892,234.076Z" transform="translate(-385.372 -232.615)" fill="#fff"/>
          <path id="Path_702" data-name="Path 702" d="M410.684,234.076a1.461,1.461,0,1,1-1.461-1.461A1.462,1.462,0,0,1,410.684,234.076Z" transform="translate(-398.567 -232.615)" fill="#fff"/>
        </g>
      </g>
      <g id="Group_8541" data-name="Group 8541" transform="translate(132.518 85.915)">
        <path id="Path_703" data-name="Path 703" d="M355.957,113.373a8.356,8.356,0,0,1,7.563,11.907l2.625,5.016-5.017-2.009a8.354,8.354,0,1,1-5.171-14.914Z" transform="translate(-347.602 -113.373)" fill="#008cab"/>
        <path id="Path_704" data-name="Path 704" d="M348.694,129.733a8.353,8.353,0,0,0,13.174,8.959l4.277,3.737h0l-5.017-2.009a8.353,8.353,0,0,1-12.434-10.687Z" transform="translate(-347.602 -125.506)" fill="#007d99"/>
        <g id="Group_8540" data-name="Group 8540" transform="translate(4.362 7.461)">
          <path id="Path_705" data-name="Path 705" d="M388.845,143.252a1,1,0,1,0,1-1A1,1,0,0,0,388.845,143.252Z" transform="translate(-382.552 -142.252)" fill="#fff"/>
          <path id="Path_706" data-name="Path 706" d="M376.666,143.252a1,1,0,1,0,1-1A1,1,0,0,0,376.666,143.252Z" transform="translate(-373.519 -142.252)" fill="#fff"/>
          <path id="Path_707" data-name="Path 707" d="M364.487,143.252a1,1,0,1,0,1-1A1,1,0,0,0,364.487,143.252Z" transform="translate(-364.487 -142.252)" fill="#fff"/>
        </g>
      </g>
      <g id="Group_8542" data-name="Group 8542" transform="translate(61.356 105.282)">
        <path id="Path_708" data-name="Path 708" d="M57.356,198.574c.09-6.451,3.925-10.241,10.286-10.241,6,0,9.7,2.8,9.7,7.85,0,6.858-6.9,7.67-6.9,13.083h-5.82c0-6.993,5.549-7.354,5.549-11.82,0-2.03-1.218-2.933-3.248-2.933-2.256,0-3.519,1.308-3.564,4.106Zm13.85,18.046a3.767,3.767,0,1,1-7.534,0,3.576,3.576,0,0,1,3.744-3.745A3.613,3.613,0,0,1,71.206,216.62Z" transform="translate(-57.356 -188.333)" fill="#c9304c"/>
      </g>
    </g>
  </g>
</svg>
