<svg xmlns="http://www.w3.org/2000/svg" xmlns:xlink="http://www.w3.org/1999/xlink" width="137" height="182" viewBox="0 0 137 182">
  <defs>
    <filter id="Path_709" x="0" y="0" width="137" height="182" filterUnits="userSpaceOnUse">
      <feOffset dy="3" input="SourceAlpha"/>
      <feGaussianBlur stdDeviation="3" result="blur"/>
      <feFlood flood-opacity="0.161"/>
      <feComposite operator="in" in2="blur"/>
      <feComposite in="SourceGraphic"/>
    </filter>
  </defs>
  <g id="Component_12_5" data-name="Component 12 – 5" transform="translate(3 6)">
    <g transform="matrix(1, 0, 0, 1, -3, -6)" filter="url(#Path_709)">
      <path id="Path_709-2" data-name="Path 709" d="M27,0H92c14.912,0,27,14.685,27,32.8v98.4c0,18.115-12.088,32.8-27,32.8H27c-14.912,0-27-14.685-27-32.8V32.8C0,14.685,12.088,0,27,0Z" transform="translate(9 6)" fill="#f9eedd"/>
    </g>
    <g id="Rectangle_94" data-name="Rectangle 94" fill="none" stroke="#333" stroke-width="2" opacity="0.5">
      <rect width="119" height="164" rx="27" stroke="none"/>
      <rect x="1" y="1" width="117" height="162" rx="26" fill="none"/>
    </g>
    <g id="Group_8499" data-name="Group 8499" transform="translate(12 28.848)">
      <g id="Group_8489" data-name="Group 8489">
        <path id="Path_264" data-name="Path 264" d="M1141.34,713.154c.316-.168.648-.307.969-.467l-4.26-7.38a.536.536,0,0,0-.929.536Z" transform="translate(-1112.793 -694.202)" fill="#bcbcbc"/>
        <path id="Path_265" data-name="Path 265" d="M484.847,1277.037c.19-.3.359-.618.556-.915l-8.2-4.736a.535.535,0,1,0-.536.927Z" transform="translate(-471.609 -1243.789)" fill="#bcbcbc"/>
        <path id="Path_266" data-name="Path 266" d="M321,2125.92H314.42a.536.536,0,1,0,0,1.071h6.524C320.953,2126.632,320.98,2126.277,321,2125.92Z" transform="translate(-313.884 -2073.214)" fill="#bcbcbc"/>
        <path id="Path_267" data-name="Path 267" d="M2615.273,769.086l3.964-6.866a.537.537,0,0,0-.93-.536l-3.952,6.845C2614.667,768.708,2614.968,768.9,2615.273,769.086Z" transform="translate(-2546.568 -748.917)" fill="#bcbcbc"/>
        <path id="Path_268" data-name="Path 268" d="M3101.022,1367.921l5.515-3.184a.536.536,0,1,0-.536-.927l-5.536,3.2C3100.654,1367.31,3100.843,1367.612,3101.022,1367.921Z" transform="translate(-3018.354 -1333.49)" fill="#bcbcbc"/>
        <path id="Path_269" data-name="Path 269" d="M1958.918,351.545V337.787a.536.536,0,1,0-1.071,0v13.7C1958.207,351.5,1958.561,351.529,1958.918,351.545Z" transform="translate(-1909.405 -337.251)" fill="#bcbcbc"/>
        <path id="Path_270" data-name="Path 270" d="M573.439,2850.72l-4.09,2.361a.535.535,0,0,0,.268,1,.526.526,0,0,0,.268-.072l4.105-2.37C573.811,2851.329,573.609,2851.035,573.439,2850.72Z" transform="translate(-561.561 -2776.656)" fill="#bcbcbc"/>
        <path id="Path_271" data-name="Path 271" d="M3146.168,2808.32c-.16.32-.3.652-.466.967l7.35,4.243a.527.527,0,0,0,.268.072.535.535,0,0,0,.268-1Z" transform="translate(-3062.257 -2735.506)" fill="#bcbcbc"/>
        <path id="Path_272" data-name="Path 272" d="M3312.148,2125.92h-9.392c.018.357.045.712.054,1.071h9.338a.536.536,0,1,0,0-1.071Z" transform="translate(-3214.684 -2073.214)" fill="#bcbcbc"/>
      </g>
      <g id="Group_8498" data-name="Group 8498" transform="translate(24.67 23.776)">
        <ellipse id="Ellipse_38" data-name="Ellipse 38" cx="18.394" cy="3.125" rx="18.394" ry="3.125" transform="translate(3.786 60.446)" opacity="0.12"/>
        <path id="Path_273" data-name="Path 273" d="M1923.433,2269.4c-.5-3.65,1.1-14.1,1.134-14.269,2.076.45,2.511,1.053,3.042,1.734,1.576,2.019,2.813,5.876,4.266,10.827C1930.965,2268.133,1923.8,2270.308,1923.433,2269.4Z" transform="translate(-1900.579 -2222.397)" fill="#612912"/>
        <path id="Path_274" data-name="Path 274" d="M1151.091,2214.986c3.239,1.986,12.55,4.58,17.745,3.19,4.189-1.121,4.053-3.157,7.04-5.294-1.333-3.42-2.279-8.479-.153-16.349-4.67-1.991-8.206-6.573-15.388-4.518C1153.058,2197.64,1151.54,2209.338,1151.091,2214.986Z" transform="translate(-1151.091 -2160.635)" fill="#f76014"/>
        <path id="Path_275" data-name="Path 275" d="M1615.647,2066.04l-3.166,6.259c-.681,1.345-2.943,1.571-5.053.5s-3.268-3.024-2.587-4.37l3.166-6.259Z" transform="translate(-1591.28 -2035.123)" fill="#ffc19f"/>
        <path id="Path_276" data-name="Path 276" d="M1526.323,2213.475a3.526,3.526,0,0,0,0-1.037,101.013,101.013,0,0,0-12.852-1.675,3.087,3.087,0,0,0-.159.436c-.471,2.694,2.058,5.387,5.65,6.015S1525.852,2216.169,1526.323,2213.475Z" transform="translate(-1502.589 -2179.334)" fill="#420000" opacity="0.16"/>
        <g id="Group_8492" data-name="Group 8492" transform="translate(2.781 0)">
          <path id="Path_277" data-name="Path 277" d="M2113.29,2009.323c-1.857,2.9-5.454,3.856-7.546,2.765s-1.632-3.847-.21-6.77,4.277-4.415,6.365-3.317C2114.754,2003.5,2115.034,2006.6,2113.29,2009.323Z" transform="translate(-2079.011 -1976.372)" fill="#f4b18c"/>
          <path id="Path_278" data-name="Path 278" d="M1319.742,1152.093c-5.387,11.6,2.64,22.579,12.341,25.879s19.621-2.7,22.627-14.758c1.669-6.7-2.072-14.082-11.361-17.173C1333.461,1142.751,1323.918,1143.1,1319.742,1152.093Z" transform="translate(-1315.871 -1144.136)" fill="#84220f"/>
          <path id="Path_279" data-name="Path 279" d="M1438.233,1310.808c-1.548,1.656-6.123,19.487-4.947,22.57,1.246,3.27,6.457,7.935,11.263,9.049,2.99.693,9.151.5,11.74-1.745,3.063-2.66,8.82-17.3,8.824-19.335.013-6.88-5.284-8.914-12.3-11.3C1446.239,1307.809,1442.25,1306.512,1438.233,1310.808Z" transform="translate(-1427.565 -1303.145)" fill="#ffc19f"/>
          <path id="Path_280" data-name="Path 280" d="M1245.471,1722.349c-.248,3.646,2.31,6.842,4.872,7.333s5.6-9.573,1.467-11.918C1248.368,1715.812,1245.7,1718.922,1245.471,1722.349Z" transform="translate(-1245.454 -1700.274)" fill="#ffc19f"/>
          <path id="Path_281" data-name="Path 281" d="M1338.627,1843.185c-.284,1.48.9,3.209,2.232,3.221.518,0,1.391-5.2.646-5.448C1340.245,1840.534,1338.911,1841.705,1338.627,1843.185Z" transform="translate(-1335.841 -1820.34)" fill="#e0956c"/>
          <path id="Path_282" data-name="Path 282" d="M1504.7,2017.319c-.266.695.484,1.628,1.675,2.084s2.372.263,2.639-.432-.484-1.628-1.675-2.084S1504.964,2016.625,1504.7,2017.319Z" transform="translate(-1497.007 -1990.93)" fill="#ff9797"/>
          <path id="Path_283" data-name="Path 283" d="M2144.533,2226.259c-.174.638.46,1.368,1.417,1.629s1.874-.044,2.049-.682-.46-1.367-1.417-1.629S2144.707,2225.621,2144.533,2226.259Z" transform="translate(-2118.012 -2193.62)" fill="#ff9797"/>
          <path id="Path_284" data-name="Path 284" d="M1761.53,2195.1l.039.016a4.563,4.563,0,0,1,2.7,2.256.232.232,0,0,1-.434.166,4.176,4.176,0,0,0-2.433-1.99l-.036-.015a4.182,4.182,0,0,0-3.133-.157.232.232,0,1,1-.208-.415A4.574,4.574,0,0,1,1761.53,2195.1Z" transform="translate(-1742.796 -2163.717)" fill="#934341"/>
          <path id="Path_285" data-name="Path 285" d="M1899.379,2064.24a.171.171,0,0,0,.2-.081,1.215,1.215,0,0,1,2.256.764.17.17,0,0,0,.335.063,1.556,1.556,0,0,0-2.89-.987.171.171,0,0,0,.069.231Z" transform="translate(-1879.997 -2036.124)" fill="#c4735b"/>
          <path id="Path_286" data-name="Path 286" d="M1650.614,1665.58a.516.516,0,0,0-.366.058,5.866,5.866,0,0,1-5.614-.442.52.52,0,1,0-.556.878,6.87,6.87,0,0,0,6.688.464.519.519,0,0,0-.152-.958Z" transform="translate(-1632.097 -1649.763)" fill="#752912"/>
          <path id="Path_287" data-name="Path 287" d="M2228.534,1807.863a.464.464,0,0,0-.707.5,6.144,6.144,0,0,0,4.485,3.975.465.465,0,0,0,.212-.9,5.237,5.237,0,0,1-3.8-3.3A.461.461,0,0,0,2228.534,1807.863Z" transform="translate(-2198.865 -1788.229)" fill="#752912"/>
          <g id="Group_8490" data-name="Group 8490" transform="translate(24.616 23.276)">
            <path id="Path_288" data-name="Path 288" d="M2080.851,1945.327s3.6,2.951,6.019.9a3.4,3.4,0,0,0-1.209-6.119C2083.757,1939.967,2081.564,1941.239,2080.851,1945.327Z" transform="translate(-2080.851 -1939.921)" fill="#f9feff"/>
            <path id="Path_289" data-name="Path 289" d="M2151.277,1936.439a3.05,3.05,0,0,0-2.447-2.346,3.551,3.551,0,0,0-3.3,1.2,3.729,3.729,0,0,1,2.881-.907,3.028,3.028,0,0,1,2.563,2.436,4.017,4.017,0,0,1-1.409,3.583A3.892,3.892,0,0,0,2151.277,1936.439Z" transform="translate(-2143.621 -1934.035)" fill="#773220"/>
            <path id="Path_290" data-name="Path 290" d="M2149.386,1999.589a2.491,2.491,0,0,0,.089,3.206,1.856,1.856,0,0,0,2.81-.42,2.491,2.491,0,0,0-.088-3.206A1.857,1.857,0,0,0,2149.386,1999.589Z" transform="translate(-2146.844 -1996.79)" fill="#63190d"/>
            <path id="Path_291" data-name="Path 291" d="M2197.236,2094.36a.691.691,0,0,0,.024.89.515.515,0,0,0,.78-.116.691.691,0,0,0-.024-.89A.515.515,0,0,0,2197.236,2094.36Z" transform="translate(-2193.661 -2089.396)" fill="#fefffe"/>
            <path id="Path_292" data-name="Path 292" d="M2186.031,2012.765a1.13,1.13,0,0,0,.04,1.455.842.842,0,0,0,1.275-.19,1.131,1.131,0,0,0-.04-1.455A.843.843,0,0,0,2186.031,2012.765Z" transform="translate(-2182.695 -2010.051)" fill="#fefffe"/>
          </g>
          <g id="Group_8491" data-name="Group 8491" transform="translate(10.484 18.205)">
            <path id="Path_293" data-name="Path 293" d="M1612.228,1781.192s-5.412-.072-6.415-3.27c-1.222-3.9,3.082-5.214,5.174-3.977C1612.922,1775.09,1614.212,1777.53,1612.228,1781.192Z" transform="translate(-1605.47 -1773.156)" fill="#f9feff"/>
            <path id="Path_294" data-name="Path 294" d="M1602.548,1762.577a3.88,3.88,0,0,1,3.9-.215,4.174,4.174,0,0,1,2.41,3.119,4.522,4.522,0,0,0-2.194-2.61,3.846,3.846,0,0,0-4.073.208,3.475,3.475,0,0,0-.981,3.727A3.412,3.412,0,0,1,1602.548,1762.577Z" transform="translate(-1601.234 -1761.938)" fill="#773220"/>
            <path id="Path_295" data-name="Path 295" d="M1668.847,1840.884a2.317,2.317,0,1,0,3.266-.276A2.318,2.318,0,0,0,1668.847,1840.884Z" transform="translate(-1666.324 -1837.76)" fill="#63190d"/>
            <path id="Path_296" data-name="Path 296" d="M1722.209,1935.27a.643.643,0,1,0,.906-.077A.642.642,0,0,0,1722.209,1935.27Z" transform="translate(-1718.497 -1929.941)" fill="#fefffe"/>
            <path id="Path_297" data-name="Path 297" d="M1712.451,1849.874a1.039,1.039,0,1,0,1.464-.123A1.039,1.039,0,0,0,1712.451,1849.874Z" transform="translate(-1708.936 -1846.925)" fill="#fefffe"/>
          </g>
          <path id="Path_298" data-name="Path 298" d="M1323.218,1187.877c-1.062-.691-.625-.934-1.6-1.733,4.756.541,5.732-6.564,12.384-7.025,10.624-.016,16.956,4.531,18.85,6.89a15.225,15.225,0,0,1,2.545,13.807c-.75,3.848-1.627,4.9-.069,6.435-2.234-.177-2.147-.6-2.369-1.8-1.309,2.879-1.482,4.326-.392,5.845-2.731-.279-3.078-2.343-2.339-4.752.881-2.871,3.352-8.011,3.333-9.157-.011-.663-1.814-5-2.671-5.352-1.868-.774-6.457,5.068-13.1,2.417,3.255-.441,5.516-1.958,8.124-4.354a11.1,11.1,0,0,0-2.013.568c-7.349,2.823-12.878,2.13-17.438-.075-1.14,5.306-2.863,11.935-8.272,10.141.8-.47,3.443-3.336,3-6.492C1320.4,1193.4,1321.85,1191.136,1323.218,1187.877Z" transform="translate(-1316.046 -1178.088)" fill="#84220f"/>
        </g>
        <g id="Group_8495" data-name="Group 8495" transform="translate(11.683 38.681)">
          <g id="Group_8494" data-name="Group 8494" transform="translate(14.172 14.04)">
            <path id="Path_299" data-name="Path 299" d="M2029.686,2941.281a39.574,39.574,0,0,0,6.9-.974c-.1-1.954-.623-5.861-.7-6.992l-7.344.989C2028.938,2936.212,2029.446,2939.962,2029.686,2941.281Z" transform="translate(-2028.537 -2933.316)" fill="#ffc19f"/>
            <path id="Path_300" data-name="Path 300" d="M2035.827,3056.369c.021.112,8-.493,8.013-.631.076-1.2-.144-4.068-.124-4.763l-8.537,1.11C2035.41,3053.363,2035.677,3055.559,2035.827,3056.369Z" transform="translate(-2034.981 -3047.508)" fill="#fff9e1"/>
            <g id="Group_8493" data-name="Group 8493" transform="translate(0 5.319)">
              <path id="Path_301" data-name="Path 301" d="M2038.122,3115.39c-.117-.4-.354-.914-.539-1.381-.137-.346-3.547-.239-3.543.6a5.083,5.083,0,0,0,.032.575c-.583.015-1.216.017-1.885,0a32.209,32.209,0,0,1-3.674-.261c-.039,1.326.112,3.618.081,5.092,0,0,15.257,2.616,17.621.373C2046.882,3119.758,2043.02,3117.053,2038.122,3115.39Z" transform="translate(-2028.507 -3113.824)" fill="#256a9e"/>
              <path id="Path_302" data-name="Path 302" d="M2031.433,3292.662c0,.327.007.643,0,.924,0,0,15.258,2.616,17.622.373.094-.089.1-.22.02-.383C2044.891,3294.551,2035.225,3293.241,2031.433,3292.662Z" transform="translate(-2031.347 -3287.393)" fill="#992020"/>
              <path id="Path_303" data-name="Path 303" d="M2310.681,3165.879a.213.213,0,0,0,.085-.418,2.579,2.579,0,0,0-2.489,1.039.213.213,0,1,0,.344.251A2.13,2.13,0,0,1,2310.681,3165.879Zm1.177.521a.208.208,0,0,0,.233-.19.213.213,0,0,0-.191-.233,2.983,2.983,0,0,0-2.51.991.213.213,0,1,0,.314.288A2.529,2.529,0,0,1,2311.859,3166.4Zm1.287.15a3.263,3.263,0,0,0-2.616.975.213.213,0,0,0,.147.363.21.21,0,0,0,.155-.062,2.8,2.8,0,0,1,2.248-.855.209.209,0,0,0,.243-.177A.213.213,0,0,0,2313.146,3166.55Z" transform="translate(-2299.994 -3163.901)" fill="#d3dae5"/>
            </g>
          </g>
          <path id="Path_304" data-name="Path 304" d="M1547.636,2472.647c.265.134.687.436.872.424,2.444-3.278,6.958-10.577,8.64-13.066,2.663-3.941,8.587-4.609,10.744.339-1.439,2.286-6.578,18.286-7.629,19.736-1.225,1.69-4.414,2.059-7.3,1.618C1549.157,2481.117,1547.135,2478.269,1547.636,2472.647Z" transform="translate(-1547.561 -2456.839)" fill="#43a3c9"/>
          <path id="Path_305" data-name="Path 305" d="M1939.722,2589.612c.958,0,8.32-1.412,8.749-1.588-.665-3.432-1.761-9.639-2.661-12.263l-8.857,2.943C1938.314,2581.693,1939.043,2586.936,1939.722,2589.612Z" transform="translate(-1925.479 -2572.256)" fill="#43a3c9"/>
        </g>
        <path id="Path_306" data-name="Path 306" d="M1329.329,2530.183l-.247-.562a34.242,34.242,0,0,0-4.079-2.868.747.747,0,0,0-.614-.667,2.531,2.531,0,0,0-.623-.031.754.754,0,0,0-.639-.574,3.163,3.163,0,0,0-.519-.018.751.751,0,0,0-.552-.512,2.514,2.514,0,0,0-.881-.027c-.068-.192-.147-.4-.229-.6l-.175-.453a.616.616,0,0,0-.243-.295v-.043c-.017-.664-1.948-13.523-2.669-15.778-.931-2.264-2.444-3-4.192-2.854-2.5.217-15.968,15.733-15.968,15.733-.787,7.117,7.648,6.8,11.177,7.3a22.908,22.908,0,0,0,6.269.924c2.177-.017,11.752,1.2,12.781,1.247C1328.387,2530.125,1329.22,2530.167,1329.329,2530.183Z" transform="translate(-1293.329 -2464.784)" opacity="0.2"/>
        <path id="Path_307" data-name="Path 307" d="M1560.263,2583.926c.4-.555-2.724-20.653-3.115-20.075-1.682,2.489-9.247,12.777-9.512,12.643-.5,5.622,1.521,8.47,5.323,9.051C1555.849,2585.985,1559.038,2585.616,1560.263,2583.926Z" transform="translate(-1535.878 -2522.005)" fill="#420000" opacity="0.16"/>
        <path id="Path_308" data-name="Path 308" d="M1200.542,2502.266c.262.139,1.065.447,1.161.474,2.514-3.225,8.864-10.552,10.6-13,2.746-3.883,8.683-4.426,10.734.568-1.488,2.255-6.967,18.142-8.047,19.569-1.261,1.664-5.56,2.407-8.44,1.905C1202.76,2511.116,1199.921,2507.876,1200.542,2502.266Z" transform="translate(-1199.002 -2447.13)" fill="#43a3c9"/>
        <path id="Path_309" data-name="Path 309" d="M1631.747,2786.7c.975-1.8,3.679-9.275,5.728-14.443l-7.8,2.972C1630.125,2778.148,1631.007,2784.106,1631.747,2786.7Z" transform="translate(-1615.571 -2724.286)" fill="#420000" opacity="0.16"/>
        <g id="Group_8497" data-name="Group 8497" transform="translate(17.828 53.739)">
          <path id="Path_310" data-name="Path 310" d="M1761.8,2975.694a39.594,39.594,0,0,0,6.916-.827c-.055-1.956-.5-5.873-.552-7.006l-7.364.833C1761.16,2970.61,1761.587,2974.37,1761.8,2975.694Z" transform="translate(-1760.662 -2967.862)" fill="#ffc19f"/>
          <path id="Path_311" data-name="Path 311" d="M1765.4,3091.727c.018.112,8.012-.322,8.024-.46.1-1.2-.057-4.071-.023-4.765l-8.559.928C1765.049,3088.713,1765.27,3090.914,1765.4,3091.727Z" transform="translate(-1764.587 -3083.006)" fill="#fff9e1"/>
          <g id="Group_8496" data-name="Group 8496" transform="translate(0 5.331)">
            <path id="Path_312" data-name="Path 312" d="M1765.741,3150.379c-.108-.406-.335-.921-.51-1.392-.129-.349-3.541-.314-3.555.523a5.067,5.067,0,0,0,.02.575c-.583,0-1.216-.008-1.885-.037a32.371,32.371,0,0,1-3.667-.339c-.067,1.325.034,3.619-.028,5.092,0,0,15.2,2.941,17.61.749C1774.405,3154.932,1770.6,3152.146,1765.741,3150.379Z" transform="translate(-1756.116 -3148.778)" fill="#256a9e"/>
            <path id="Path_313" data-name="Path 313" d="M1756.135,3321.884c0,.328-.007.644-.019.924,0,0,15.2,2.941,17.61.748.1-.087.1-.218.028-.382C1769.55,3324.059,1759.914,3322.544,1756.135,3321.884Z" transform="translate(-1756.116 -3316.783)" fill="#992020"/>
            <path id="Path_314" data-name="Path 314" d="M2037.8,3202.545a.213.213,0,0,0,.094-.416,2.578,2.578,0,0,0-2.51.986.213.213,0,1,0,.338.259A2.129,2.129,0,0,1,2037.8,3202.545Zm1.166.545a.208.208,0,0,0,.237-.186.213.213,0,0,0-.186-.237,2.981,2.981,0,0,0-2.531.937.213.213,0,1,0,.308.294A2.528,2.528,0,0,1,2038.964,3203.091Zm1.284.178a3.263,3.263,0,0,0-2.636.919.213.213,0,0,0,.3.306,2.794,2.794,0,0,1,2.266-.807.21.21,0,0,0,.247-.172A.213.213,0,0,0,2040.248,3203.269Z" transform="translate(-2027.11 -3200.509)" fill="#d3dae5"/>
          </g>
        </g>
        <path id="Path_315" data-name="Path 315" d="M1666.478,2623.122c.958-.034,8.32-1.227,8.791-1.462-.592-3.446-1.427-9.729-2.271-12.372l-8.917,2.753C1664.7,2614.5,1665.856,2620.432,1666.478,2623.122Z" transform="translate(-1648.964 -2566.114)" fill="#43a3c9"/>
        <path id="Path_316" data-name="Path 316" d="M1345.281,2625.461c.359.011.633-4.079.276-4.121a122.525,122.525,0,0,1-14.182-2.838s-1.18,3.84.981,5.867C1334.076,2625.983,1340.534,2625.31,1345.281,2625.461Z" transform="translate(-1325.75 -2575.057)" fill="#ffc19f"/>
        <path id="Path_317" data-name="Path 317" d="M1233.942,2359.69a49.9,49.9,0,0,1,1.4-8c.883-3.152,5.984-2.416,8.222-.11.832.857,1.412,4.614,1.589,7.538C1241.9,2359.451,1236.236,2360.182,1233.942,2359.69Z" transform="translate(-1231.501 -2314.066)" fill="#420000" opacity="0.23"/>
        <path id="Path_318" data-name="Path 318" d="M1252.618,2252.666a36.167,36.167,0,0,1,.846-7.63c.883-3.152,3.421-6.093,6.5-5.177,2.844.846,2.846,10.112,2.645,12.557C1260.417,2253.053,1255.066,2253,1252.618,2252.666Z" transform="translate(-1249.626 -2207.407)" fill="#f76014"/>
        <path id="Path_319" data-name="Path 319" d="M1716.944,2608.721a35.005,35.005,0,0,1-6.22-.836,2.459,2.459,0,0,1-2.086-3.333c.226-.647,2.816-3.67,3.894-4.068a8.926,8.926,0,0,1,2.315-.628c.687.516-.1,1.4-1.269,1.886a1.789,1.789,0,0,0-.854.932c.058.282,2.3-.763,3.33-1.02a6.161,6.161,0,0,1,3.214.5c.246.637-1.718.784-2.51.914a5.972,5.972,0,0,0-1.5.705c.637.1,1.807.025,2.239.059.833.067,2.674-.034,2.885.5.165.419-1,.745-2.447.9-.352.037-1.655.212-2.5.351a17.451,17.451,0,0,0,2.266.2c.834-.109,1.955-.361,2.395.359.12.2-1.673.93-2.542.968-.388.017-1.242.089-2.268.065a19.341,19.341,0,0,0,1.925.335c1.234-.356,1.74-.455,2.08.079A4.34,4.34,0,0,1,1716.944,2608.721Z" transform="translate(-1692.062 -2556.946)" fill="#ffc19f"/>
        <path id="Path_320" data-name="Path 320" d="M2197.583,2611.219c.02-.3-.389-.625-1.056-.842.636-.127,1.086-.439,1.088-.808,0-.438-.63-.8-1.458-.876.67-.21,1.125-.615,1.073-1.023-.055-.439-.676-.733-1.456-.733.4-.322.841-.78.682-1.121-.292-.625-1.217-.563-2.049-.234s-1.619,1.3-1.439,1.756c.1.248.542.4,1.055.185a.7.7,0,0,0-.264.583c.048.378.514.649,1.141.717-.463.156-.769.421-.77.725s.345.713,1.206.851c-.421.1-.8.3-.809.581,0,.342.295.866,1.255.927C2196.8,2611.971,2197.551,2611.7,2197.583,2611.219Z" transform="translate(-2162.243 -2562.282)" fill="#ffc19f"/>
      </g>
    </g>
  </g>
</svg>
