<svg xmlns="http://www.w3.org/2000/svg" xmlns:xlink="http://www.w3.org/1999/xlink" width="165.104" height="168" viewBox="0 0 165.104 168">
  <defs>
    <radialGradient id="radial-gradient" cx="0.5" cy="0.5" r="0.575" gradientTransform="translate(0.11) scale(0.78 1)" gradientUnits="objectBoundingBox">
      <stop offset="0" stop-color="#ffe1cc"/>
      <stop offset="1" stop-color="#ffc39a"/>
    </radialGradient>
    <radialGradient id="radial-gradient-2" cx="0.5" cy="0.165" r="0.717" gradientTransform="translate(-1.598) scale(4.195 1)" gradientUnits="objectBoundingBox">
      <stop offset="0" stop-color="#fff" stop-opacity="0.302"/>
      <stop offset="1" stop-color="#fff" stop-opacity="0.302"/>
    </radialGradient>
    <radialGradient id="radial-gradient-3" cx="0.5" cy="0.5" r="0.56" gradientTransform="translate(0.093) scale(0.814 1)" gradientUnits="objectBoundingBox">
      <stop offset="0" stop-color="#fff" stop-opacity="0.102"/>
      <stop offset="1" stop-color="#fff" stop-opacity="0.302"/>
    </radialGradient>
    <radialGradient id="radial-gradient-4" cx="0.5" cy="0.5" r="0.366" gradientTransform="translate(-1.345) scale(3.689 1)" xlink:href="#radial-gradient-3"/>
    <radialGradient id="radial-gradient-5" cx="0.5" cy="0.5" r="0.881" gradientTransform="translate(0.281) scale(0.438 1)" gradientUnits="objectBoundingBox">
      <stop offset="0" stop-color="#defff2"/>
      <stop offset="1" stop-color="#8ec39a"/>
    </radialGradient>
    <radialGradient id="radial-gradient-6" cx="0.5" r="0.531" gradientTransform="translate(0.054) scale(0.892 1)" xlink:href="#radial-gradient"/>
    <radialGradient id="radial-gradient-7" cx="0.5" cy="0.5" r="0.828" gradientTransform="translate(0.264) scale(0.472 1)" gradientUnits="objectBoundingBox">
      <stop offset="0" stop-color="#ff7753"/>
      <stop offset="0.991" stop-color="#ff735f"/>
    </radialGradient>
    <radialGradient id="radial-gradient-8" cx="0.5" cy="0.5" r="0.924" gradientTransform="translate(0.293) scale(0.414 1)" xlink:href="#radial-gradient-3"/>
    <radialGradient id="radial-gradient-9" cx="0.5" cy="0.5" r="0.5" gradientTransform="translate(0)" gradientUnits="objectBoundingBox">
      <stop offset="0" stop-color="#ff719a" stop-opacity="0.302"/>
      <stop offset="0.998" stop-color="#ffc39a" stop-opacity="0.4"/>
    </radialGradient>
    <radialGradient id="radial-gradient-11" cx="0.5" cy="0.165" r="1.172" gradientTransform="translate(0.272) scale(0.457 1)" xlink:href="#radial-gradient-2"/>
    <radialGradient id="radial-gradient-12" cx="0.5" cy="0.165" r="1.108" gradientTransform="translate(0.25) scale(0.5 1)" xlink:href="#radial-gradient-2"/>
    <radialGradient id="radial-gradient-13" cx="0.5" cy="0.165" r="1.297" gradientTransform="translate(0.304) scale(0.392 1)" xlink:href="#radial-gradient-2"/>
    <radialGradient id="radial-gradient-14" cx="0.5" cy="0.165" r="1.279" gradientTransform="translate(0.3) scale(0.4 1)" xlink:href="#radial-gradient-2"/>
    <radialGradient id="radial-gradient-15" cx="0.5" cy="0.165" r="1.486" gradientTransform="translate(0.337) scale(0.326 1)" xlink:href="#radial-gradient-2"/>
    <radialGradient id="radial-gradient-16" cx="0.5" cy="0.165" r="1.029" gradientTransform="translate(0.214) scale(0.571 1)" xlink:href="#radial-gradient-2"/>
    <radialGradient id="radial-gradient-17" cx="0.5" cy="0.165" r="0.713" gradientTransform="translate(-3.18) scale(7.36 1)" xlink:href="#radial-gradient-2"/>
    <radialGradient id="radial-gradient-18" cx="0.5" cy="0.165" r="0.745" gradientTransform="translate(-0.442) scale(1.884 1)" xlink:href="#radial-gradient-2"/>
  </defs>
  <g id="Group_8606" data-name="Group 8606" transform="translate(-420.109 -386.383)">
    <g id="Group_8567" data-name="Group 8567" transform="translate(420.109 413.761)">
      <path id="Path_756" data-name="Path 756" d="M521.252,443.165a66.3,66.3,0,0,0-25.083,4.9A26.367,26.367,0,0,0,452,473.9a15.1,15.1,0,0,0,3.674,24.731,66.526,66.526,0,0,0,65.583,77.539,66.2,66.2,0,0,0,30.981-7.648,19.511,19.511,0,1,0,27.673-27.5,66.516,66.516,0,0,0-58.653-97.857Z" transform="translate(-433.349 -440.107)" fill="#d2ffb9"/>
      <path id="Path_757" data-name="Path 757" d="M427.371,465.605a7.262,7.262,0,1,0,7.261,7.262A7.262,7.262,0,0,0,427.371,465.605Z" transform="translate(-420.109 -452.611)" fill="#d2ffb9"/>
      <path id="Path_758" data-name="Path 758" d="M729.563,623.1a4.968,4.968,0,1,0,4.969,4.969A4.968,4.968,0,0,0,729.563,623.1Z" transform="translate(-569.428 -529.845)" fill="#d2ffb9"/>
    </g>
    <g id="Group_8605" data-name="Group 8605" transform="translate(443.23 386.383)">
      <path id="Path_759" data-name="Path 759" d="M491.294,618.4a2.088,2.088,0,0,1-1.884-1.319,2.681,2.681,0,0,1-2.042,1,3.442,3.442,0,0,1-2.253-1.016,4.96,4.96,0,0,1-2.49.793,3.466,3.466,0,0,1-3.1-2.265,4.729,4.729,0,0,1-.924.1,3.02,3.02,0,0,1-2.268-.934,4.55,4.55,0,0,1-1.062-2.577,2.018,2.018,0,0,1-.245.015,1.64,1.64,0,0,1-1.522-.967c-1-2.086,1.012-7.467,3.364-10.408a22.647,22.647,0,0,0,3.886-8.163c-.353-1.782-2.966-15.882,1.052-23.94,1.983-3.974,4.589-4.809,6.427-4.809a8.254,8.254,0,0,1,3.8,1.039c-.964-4.5-.367-11.109-.059-13.79l-8.648,2.628a7.672,7.672,0,0,1-1.479,6.139,5.269,5.269,0,0,1-3.875,2,2.172,2.172,0,0,1-1.655-.629,1.562,1.562,0,0,1-.378-1.232c0-.018,0-.036.005-.052a5.143,5.143,0,0,0-.8.614.756.756,0,0,1-.208.141,8.234,8.234,0,0,1-3.249.9,2.172,2.172,0,0,1-1.941-.922,3.823,3.823,0,0,1-.2-2.93c-1.04-.094-2.388-.414-2.782-1.51-.384-1.063.383-2.26,1.126-3.1-1.377-.411-2.154-1.058-2.36-1.959-.33-1.44,1.043-2.849,1.943-3.6-.847-1.2-1.065-2.208-.667-3.061.551-1.179,2.189-1.753,5.008-1.753a35.424,35.424,0,0,1,5.34.484c15.254-11.453,20.837-13.171,22.809-13.171a2.466,2.466,0,0,1,.432.034c2.466-.634,6.356-.93,12.2-.93,3.779,0,7.922.116,12.309.238,4.53.126,9.215.257,13.623.257,6.679,0,16.022-.265,20.042-2.551a34.373,34.373,0,0,1,16.725-4.481c.637,0,1.176.02,1.6.047a4.843,4.843,0,0,1,.557-3.264,4.561,4.561,0,0,1,3.645-1.927c.264-.026.513-.039.738-.039a2.53,2.53,0,0,1,1.987.676,1.725,1.725,0,0,1,.426,1.109c.33-.193.81-.493,1.506-.958a6.91,6.91,0,0,1,3.553-1.44,2.084,2.084,0,0,1,1.663.74,3.573,3.573,0,0,1,.629,2.351c1.49.217,2.415.778,2.755,1.674a3.56,3.56,0,0,1-.839,3.163,2.6,2.6,0,0,1,1.573,2.125c.039,1.53-1.755,2.752-2.818,3.339a2.353,2.353,0,0,1-.2,1.94c-.961,1.62-4.182,2.442-9.571,2.442-1.319,0-2.417-.051-3.008-.085-3.222,5.011-10.962,10.148-12.885,11.377a45.889,45.889,0,0,1-.205,11.672c1.5-1.263,3.806-2.815,6.035-2.815a4.4,4.4,0,0,1,3.65,1.915,15.1,15.1,0,0,1,2.769,10.35,3.257,3.257,0,0,1,1.227.984,1.828,1.828,0,0,1,1.105-.385c1.269,0,2.1,1.441,2.527,2.477a3.431,3.431,0,0,1,1.521-.385c2.033,0,3.1,2.1,3.519,3.221a5.179,5.179,0,0,1,.707-.052,2.867,2.867,0,0,1,2.4,1.066,4.765,4.765,0,0,1,.65,3.42,1.652,1.652,0,0,1,.939.8c1.384,2.65-4.28,11.172-6.13,13.832-.394.9-3.837,8.238-11.312,8.238-.313,0-.634-.014-.953-.04a5.867,5.867,0,0,1-4.46-2.42c-2.153-2.956-1.851-7.854-1.472-10.547-5,3.474-9.935,5.233-14.684,5.233a18.053,18.053,0,0,1-12.225-4.666,27.681,27.681,0,0,1-13.056,3.007,39.043,39.043,0,0,1-12.4-2.059,55.443,55.443,0,0,1-9.284.805,41.149,41.149,0,0,1-9.041-.912,54.434,54.434,0,0,0,1.177,7.8,5.253,5.253,0,0,1-.956,4.767,4.118,4.118,0,0,0-.823,3.667c.945,4.59-1.785,10.624-4.763,12.752A3.086,3.086,0,0,1,491.294,618.4Z" transform="translate(-465.48 -450.4)" fill="#cc6e52"/>
      <path id="Path_760" data-name="Path 760" d="M568.333,634.666v12.286A40.167,40.167,0,0,0,577,648.543V634.666Z" transform="translate(-515.919 -508.14)" fill="#008f63"/>
      <path id="Path_761" data-name="Path 761" d="M501.134,531.714s-3.289-1.717-23.048,13.155c0,0-14.025-2.581-8.8,3.661,0,0-5.733,3.949.892,4.969,0,0-5.223,4.332,1.147,4.332,0,0-2.51,5.959,4.032,2.98,0,0,2.338-2.215,2.083.078s7.207.974,5.769-6.9l10.411-3.163s-1.656,11.721.51,16.69c0,0-6.766-6-10.9,2.287s-.954,23.609-.954,23.609a23.279,23.279,0,0,1-4.071,8.63c-3.058,3.822-5.232,11.693-1.469,9.86,0,0-.314,4.919,4.017,3.517,0,0,1.019,4.332,5.223,1.4,0,0,2.548,3.312,4.459-.892,0,0,.255,3.822,2.93,1.911s5.351-7.644,4.459-11.976,2.8-4.2,1.784-8.408a57.224,57.224,0,0,1-1.272-8.99s7.515,2.365,19.236.326c0,0,13.971,5.351,25.523-1.1,0,0,10.662,11.758,27.859-1.359,0,0-3.091,13.274,4.909,13.941s11.53-7.809,11.53-7.809,9.721-13.947,4.964-13.607c0,0,1.4-5.371-3.376-4.214,0,0-1.336-5.261-4.925-2.562,0,0-1.637-5.68-3.929-1.038,0,0,1.507-2.124-1.21-3.143a14.047,14.047,0,0,0-2.7-9.937c-3.567-4.757-10.192,2.548-10.192,2.548a47.353,47.353,0,0,0,.5-14.161s9.946-6.14,13.3-11.787c0,0,14.944,1.149,12.208-3.863,0,0,6.1-2.8,1-4.842,0,0,4.077-4.077-1.529-4.417,0,0,1.019-5.435-4.586-1.7s.009-1.159-5.006-.665-3.3,5.287-3.3,5.287a32.3,32.3,0,0,0-18.927,4.242C549.886,534.176,512.005,528.741,501.134,531.714Z" transform="translate(-466.216 -451.136)" fill="url(#radial-gradient)"/>
      <path id="Path_762" data-name="Path 762" d="M650.8,549.981s12.505,19.544-3.8,35.172C647,585.153,655.962,568.828,650.8,549.981Z" transform="translate(-554.496 -466.611)" fill="url(#radial-gradient-2)"/>
      <g id="Group_8568" data-name="Group 8568" transform="translate(104.146 130.434)">
        <path id="Path_763" data-name="Path 763" d="M692.857,642.333c-.68,1.359-6.116,15.628-15.968,14.948-6.021-.415-6.838-5.651-6.564-9.661-.473,2.471-2.025,12.823,5.019,13.411,8,.668,11.53-7.809,11.53-7.809s4.8-6.9,6-10.871Z" transform="translate(-669.846 -642.333)" fill="url(#radial-gradient-3)"/>
        <path id="Path_764" data-name="Path 764" d="M671.166,643.666s-.566,1.764-1.213,4.475c.154-.114.307-.227.462-.344A23.49,23.49,0,0,1,671.166,643.666Z" transform="translate(-669.899 -642.987)" fill="url(#radial-gradient-4)"/>
      </g>
      <path id="Path_765" data-name="Path 765" d="M592.712,598.442s-11.564,11.623-34.878,12.642-34.016-2.8-37.456-5.606l-.127.51s8.408,5.86,12.1,10.574,9.045,12.231,18.091,13.25,18.6.382,25.48-8.408S587.969,602.872,592.712,598.442Z" transform="translate(-492.339 -490.376)" fill="url(#radial-gradient-5)"/>
      <g id="Group_8569" data-name="Group 8569" transform="translate(103.906 116.214)">
        <path id="Path_766" data-name="Path 766" d="M678.441,614.583c-3.73-.915-4.84,2.443-5.59,5.451-1.277,5.124-3.247,10.268-3.477,15.581-.018.411.619.409.637,0,.183-4.236,1.585-8.263,2.706-12.316.812-2.936,1.135-9.186,5.554-8.1a.319.319,0,0,0,.169-.614Z" transform="translate(-669.374 -614.429)" fill="#cc6e52"/>
      </g>
      <g id="Group_8570" data-name="Group 8570" transform="translate(112.245 116.178)">
        <path id="Path_767" data-name="Path 767" d="M685.958,614.993c2.148.756,2.015,3.1,1.646,4.959-.079.4.534.572.614.169.448-2.254.431-4.854-2.09-5.743-.388-.137-.554.479-.169.615Z" transform="translate(-685.739 -614.358)" fill="#cc6e52"/>
      </g>
      <g id="Group_8571" data-name="Group 8571" transform="translate(117.075 118.563)">
        <path id="Path_768" data-name="Path 768" d="M695.277,619.5c.984,1.345.313,2.955.148,4.49-.044.408.593.4.637,0,.182-1.693.851-3.327-.234-4.811-.24-.328-.793-.011-.55.321Z" transform="translate(-695.216 -619.039)" fill="#cc6e52"/>
      </g>
      <g id="Group_8572" data-name="Group 8572" transform="translate(121.063 121.129)">
        <path id="Path_769" data-name="Path 769" d="M704.1,624.536c1.065,1.508-.257,3.242-1.019,4.605a.319.319,0,0,0,.55.321c.885-1.584,2.246-3.509,1.019-5.247-.235-.333-.788-.015-.55.321Z" transform="translate(-703.042 -624.074)" fill="#cc6e52"/>
      </g>
      <g id="Group_8573" data-name="Group 8573" transform="translate(124.121 124.525)">
        <path id="Path_770" data-name="Path 770" d="M711.251,631.041c.254,1.972-.792,3.52-2.115,4.871-.287.294.163.745.45.451,1.43-1.46,2.576-3.194,2.3-5.321-.052-.4-.689-.407-.637,0Z" transform="translate(-709.044 -630.738)" fill="#cc6e52"/>
      </g>
      <g id="Group_8574" data-name="Group 8574" transform="translate(23.597 160.855)">
        <path id="Path_771" data-name="Path 771" d="M512.541,707.366a7.837,7.837,0,0,1,.648-4.851c.176-.368-.373-.692-.55-.321a8.586,8.586,0,0,0-.711,5.341c.067.4.681.232.614-.169Z" transform="translate(-511.785 -702.03)" fill="#cc6e52"/>
      </g>
      <g id="Group_8575" data-name="Group 8575" transform="translate(19.16 161.217)">
        <path id="Path_772" data-name="Path 772" d="M503.854,707.884a6.063,6.063,0,0,1,.818-4.681c.235-.338-.317-.656-.55-.321a6.706,6.706,0,0,0-.882,5.172c.081.4.695.232.614-.169Z" transform="translate(-503.077 -702.739)" fill="#cc6e52"/>
      </g>
      <g id="Group_8576" data-name="Group 8576" transform="translate(14.202 160.877)">
        <path id="Path_773" data-name="Path 773" d="M494.157,706.537a12.169,12.169,0,0,1,.012-4.162c.05-.407-.587-.4-.637,0a12.626,12.626,0,0,0,.011,4.331c.089.4.7.231.614-.169Z" transform="translate(-493.348 -702.071)" fill="#cc6e52"/>
      </g>
      <g id="Group_8577" data-name="Group 8577" transform="translate(9.973 157.806)">
        <path id="Path_774" data-name="Path 774" d="M485.671,700.693c.323-1.605.678-3.215,2.232-4.056.361-.2.04-.746-.321-.55-1.708.924-2.167,2.657-2.525,4.437-.081.4.534.572.614.169Z" transform="translate(-485.05 -696.046)" fill="#cc6e52"/>
      </g>
      <g id="Group_8578" data-name="Group 8578" transform="translate(28.477 125.621)">
        <path id="Path_775" data-name="Path 775" d="M521.461,633.425c4.153,3.783,3.293,9.723,3.814,14.808.041.4.679.409.637,0-.541-5.276.3-11.338-4-15.259-.3-.276-.755.173-.451.451Z" transform="translate(-521.36 -632.889)" fill="#cc6e52"/>
      </g>
      <g id="Group_8579" data-name="Group 8579" transform="translate(15.566 141.508)">
        <path id="Path_776" data-name="Path 776" d="M496.033,664.372c-.226,3.146,3.883,3.879,6.264,3.715.408-.028.41-.665,0-.637-2.016.138-5.824-.339-5.627-3.078.03-.41-.607-.407-.637,0Z" transform="translate(-496.024 -664.065)" fill="#cc6e52"/>
      </g>
      <g id="Group_8580" data-name="Group 8580" transform="translate(98.849 117.973)">
        <path id="Path_777" data-name="Path 777" d="M659.678,618.112c-1.123,6.655,2.156,12.542,4.586,18.515.153.375.769.211.614-.169-2.374-5.832-5.685-11.665-4.586-18.177.068-.4-.546-.574-.614-.169Z" transform="translate(-659.451 -617.881)" fill="#cc6e52"/>
      </g>
      <g id="Group_8581" data-name="Group 8581" transform="translate(26.107 92.754)">
        <path id="Path_778" data-name="Path 778" d="M519.1,568.619a50.545,50.545,0,0,0-2.219,18.94c.037.406.674.409.637,0a50.065,50.065,0,0,1,2.2-18.771.319.319,0,0,0-.614-.169Z" transform="translate(-516.71 -568.395)" fill="#cc6e52"/>
      </g>
      <g id="Group_8582" data-name="Group 8582" transform="translate(14.562 99.535)">
        <path id="Path_779" data-name="Path 779" d="M494.091,582.183c.692,1.376,1.573,2.96,3.248,3.2.4.059.574-.554.169-.614-1.508-.22-2.247-1.678-2.867-2.911-.184-.367-.734-.044-.55.321Z" transform="translate(-494.054 -581.7)" fill="#cc6e52"/>
      </g>
      <g id="Group_8583" data-name="Group 8583" transform="translate(3.857 104.794)">
        <path id="Path_780" data-name="Path 780" d="M473.638,595.058a7.391,7.391,0,0,1,2.6-2.433c.339-.227.021-.779-.321-.55a8.074,8.074,0,0,0-2.832,2.663c-.193.362.357.683.55.321Z" transform="translate(-473.048 -592.02)" fill="#cc6e52"/>
      </g>
      <g id="Group_8584" data-name="Group 8584" transform="translate(1.994 101.584)">
        <path id="Path_781" data-name="Path 781" d="M469.787,587.19a30.381,30.381,0,0,1,3.737-.85c.405-.061.232-.675-.169-.614a30.481,30.481,0,0,0-3.737.849.319.319,0,0,0,.169.615Z" transform="translate(-469.393 -585.722)" fill="#cc6e52"/>
      </g>
      <g id="Group_8585" data-name="Group 8585" transform="translate(1.995 96.991)">
        <path id="Path_782" data-name="Path 782" d="M469.7,577.345a20.284,20.284,0,0,1,3.143.329c.4.066.574-.547.169-.615a21.511,21.511,0,0,0-3.312-.351.319.319,0,0,0,0,.637Z" transform="translate(-469.395 -576.708)" fill="#cc6e52"/>
      </g>
      <g id="Group_8586" data-name="Group 8586" transform="translate(111.215 72.363)">
        <path id="Path_783" data-name="Path 783" d="M683.947,529c1.963.431,2.133,3.165,2.144,4.789a.319.319,0,0,0,.637,0c-.014-1.927-.318-4.9-2.612-5.4-.4-.088-.57.526-.169.615Z" transform="translate(-683.718 -528.38)" fill="#cc6e52"/>
      </g>
      <g id="Group_8587" data-name="Group 8587" transform="translate(123.446 68.945)">
        <path id="Path_784" data-name="Path 784" d="M708.116,523.676a4.114,4.114,0,0,0,2.349-1.441c.251-.319-.2-.773-.451-.45a3.569,3.569,0,0,1-2.068,1.277c-.4.089-.231.7.169.615Z" transform="translate(-707.718 -521.674)" fill="#cc6e52"/>
      </g>
      <g id="Group_8588" data-name="Group 8588" transform="translate(125.489 74.059)">
        <path id="Path_785" data-name="Path 785" d="M712.037,532.345h2.038a.319.319,0,0,0,0-.637h-2.038a.319.319,0,0,0,0,.637Z" transform="translate(-711.729 -531.708)" fill="#cc6e52"/>
      </g>
      <g id="Group_8589" data-name="Group 8589" transform="translate(123.791 78.985)">
        <path id="Path_786" data-name="Path 786" d="M708.7,542.012c.853.012,1.7.158,2.548.17a.319.319,0,0,0,0-.637c-.853-.012-1.7-.157-2.548-.17a.319.319,0,0,0,0,.637Z" transform="translate(-708.395 -541.375)" fill="#cc6e52"/>
      </g>
      <g id="Group_8590" data-name="Group 8590" transform="translate(96.263 82.892)">
        <path id="Path_787" data-name="Path 787" d="M654.419,549.52a37.2,37.2,0,0,1,4.543,17.846.319.319,0,0,0,.637,0,37.971,37.971,0,0,0-4.63-18.167c-.2-.36-.748-.039-.55.321Z" transform="translate(-654.377 -549.041)" fill="#cc6e52"/>
      </g>
      <g id="Group_8594" data-name="Group 8594" transform="translate(25.598 107.521)">
        <g id="Group_8591" data-name="Group 8591" transform="translate(0 6.796)">
          <path id="Path_788" data-name="Path 788" d="M515.868,611.3a54.808,54.808,0,0,1,15.076,12.885c3.818,4.459,7.725,9.285,13.368,11.439.384.147.549-.469.169-.615-6.264-2.389-10.43-8.224-14.673-13.116a49.756,49.756,0,0,0-13.619-11.143.319.319,0,0,0-.321.55Z" transform="translate(-515.711 -610.708)" fill="#008f63"/>
        </g>
        <g id="Group_8592" data-name="Group 8592" transform="translate(35.259 0.173)">
          <path id="Path_789" data-name="Path 789" d="M624.475,597.8c-6.349,6.141-10.35,13.949-15.511,21.008a28.978,28.978,0,0,1-8.963,8.4c-4.489,2.533-9.766,2.889-14.795,2.432-.409-.037-.406.6,0,.637,9.344.85,17-2.11,22.946-9.381,5.983-7.32,9.9-16,16.774-22.648.3-.286-.155-.736-.45-.451Z" transform="translate(-584.9 -597.712)" fill="#008f63"/>
        </g>
        <g id="Group_8593" data-name="Group 8593" transform="translate(1.185)">
          <path id="Path_790" data-name="Path 790" d="M518.2,604.932c11.235,5.844,25.1,6.89,37.525,6.16,12.578-.739,26.743-3.9,35.9-13.174.289-.293-.162-.743-.451-.451-9.234,9.343-23.483,12.285-36.12,13.027-12.081.709-25.634-.441-36.538-6.112-.363-.189-.686.361-.321.55Z" transform="translate(-518.037 -597.372)" fill="#008f63"/>
        </g>
      </g>
      <g id="Group_8601" data-name="Group 8601" transform="translate(16.845)">
        <path id="Path_791" data-name="Path 791" d="M543.636,479.259c-11.157,0-21.1-3.786-31.287-11.914-9.91-7.906-8.737-20.235-8.166-23.734a5.982,5.982,0,0,1-3.789-2.239,8.434,8.434,0,0,1-1.7-7,5.353,5.353,0,0,1,5.5-4.768,31.94,31.94,0,0,1,8.838-22.484c7.44-7.555,18.884-11.386,34.015-11.386,1.358,0,2.763.032,4.176.095,10.4.461,24.329,3.945,31.59,17.922a38.453,38.453,0,0,1,4.188,15.932c2.151.18,4.531,1.4,4.929,5.784.536,5.892-3.252,7.809-5.086,8.389,1.351,3.594,1.026,7.831-.956,12.32-3.88,8.786-13.419,16.674-24.3,20.094a59.429,59.429,0,0,1-17.957,2.992Z" transform="translate(-498.534 -390.968)" fill="#cc6e52"/>
        <path id="Path_792" data-name="Path 792" d="M586.987,431.158s.726-32.244-35.055-33.831S505.45,414.6,505.7,431.158a4.723,4.723,0,0,0-5.522,4.093c-.943,4.931,2.738,8.765,5.659,8.324,0,0-3.62,14.863,7.718,23.909,13.546,10.807,28.3,15.151,48.54,8.791,17.836-5.606,29.218-21.913,24.437-32.212,0,0,6.015-.747,5.375-7.792C591.657,433.467,590.468,431.089,586.987,431.158Z" transform="translate(-499.269 -391.704)" fill="url(#radial-gradient-6)"/>
        <path id="Path_793" data-name="Path 793" d="M576.582,499.018a67.44,67.44,0,0,0,7.9-2.293c3.312-1.274,8.45-.467,9.385,4.035s.934,10.957-3.058,13.5-9,1.444-11.466,1.274-7.389-.085-9.513.679-7.135.764-9.513-3.4-2.038-11.721.849-14.439,6.2-1.1,8.578-.849S573.567,498.976,576.582,499.018Z" transform="translate(-528.06 -440.227)" fill="#4c2118"/>
        <path id="Path_794" data-name="Path 794" d="M597.5,499.774l.764,4.332s3.313.382,4.586-.637-.892-4.969-.892-4.969S599.156,499.392,597.5,499.774Z" transform="translate(-547.066 -441.364)" fill="#fff"/>
        <path id="Path_795" data-name="Path 795" d="M585.006,517.25c-5.664,0-10.256,3.765-10.256,8.408a6.9,6.9,0,0,0,.13,1.275,7.975,7.975,0,0,0,2.8-.383c2.123-.764,7.049-.849,9.513-.679,1.793.124,4.935.735,8.051.081,0-.1.018-.195.018-.294C595.262,521.015,590.67,517.25,585.006,517.25Z" transform="translate(-535.91 -450.559)" fill="url(#radial-gradient-7)"/>
        <g id="Group_8595" data-name="Group 8595" transform="translate(6.426 53.578)">
          <path id="Path_796" data-name="Path 796" d="M567.039,520.217c-20.238,6.36-34.994,2.016-48.54-8.791a21.276,21.276,0,0,1-7.356-11.294,21.666,21.666,0,0,0,7.865,13.588c13.546,10.807,28.3,15.151,48.54,8.791,17.149-5.39,28.323-20.67,24.91-30.993C593.724,501.69,582.958,515.215,567.039,520.217Z" transform="translate(-511.144 -491.518)" fill="url(#radial-gradient-8)"/>
        </g>
        <g id="Group_8596" data-name="Group 8596" transform="translate(43.163 47.169)">
          <path id="Path_797" data-name="Path 797" d="M583.761,482.043c2.38-2.881,6.138-3.647,8.291-.065a.318.318,0,0,0,.549-.321c-2.346-3.905-6.615-3.3-9.29-.065-.26.314.188.767.449.451Z" transform="translate(-583.233 -478.942)" fill="#cc6e52"/>
        </g>
        <g id="Group_8597" data-name="Group 8597" transform="translate(63.302 24.761)">
          <path id="Path_798" data-name="Path 798" d="M623.937,437.219c2.69-.745,5.673-.367,7.457,1.982.735.967,2.4.017,1.65-.965-2.32-3.054-6.008-3.859-9.615-2.86a.956.956,0,0,0,.508,1.843Z" transform="translate(-622.753 -434.971)" fill="#945f00"/>
        </g>
        <g id="Group_8598" data-name="Group 8598" transform="translate(18.908 24.761)">
          <path id="Path_799" data-name="Path 799" d="M544.933,437.219c-2.69-.745-5.673-.367-7.457,1.982-.735.967-2.4.017-1.65-.965,2.319-3.054,6.008-3.859,9.615-2.86a.956.956,0,0,1-.508,1.843Z" transform="translate(-535.638 -434.971)" fill="#945f00"/>
        </g>
        <g id="Group_8599" data-name="Group 8599" transform="translate(43.399 78.954)">
          <path id="Path_800" data-name="Path 800" d="M584.243,543.589a7.326,7.326,0,0,1,9.233,0c.3.283.748-.167.449-.451a7.948,7.948,0,0,0-10.132,0c-.3.284.153.734.449.451Z" transform="translate(-583.695 -541.314)" fill="#cc6e52"/>
        </g>
        <circle id="Ellipse_100" data-name="Ellipse 100" cx="10.319" cy="10.319" r="10.319" transform="translate(66.016 45.585)" fill="url(#radial-gradient-9)"/>
        <circle id="Ellipse_101" data-name="Ellipse 101" cx="10.319" cy="10.319" r="10.319" transform="translate(6.944 47.199)" fill="url(#radial-gradient-9)"/>
        <g id="Group_8600" data-name="Group 8600" transform="translate(41.773)">
          <path id="Path_801" data-name="Path 801" d="M581.816,393.748c-.151-2.07-.036-4.5,1.95-5.677,1.584-.935,3.725-.262,5.2.532,4.518,2.43,4.686,7.866.338,10.637-2.846,1.814-2.887-2.721-2.139-4.243,1.325-2.7,5.682-3.418,8.141-2.027,2.186,1.236,1.664,4.454,1.041,6.395a11.156,11.156,0,0,1-4.791,6.065.637.637,0,0,0,.643,1.1,12.815,12.815,0,0,0,5.735-8.116c.611-2.6.022-5.966-2.824-6.954-3.336-1.159-7.616-.013-9.229,3.27-.986,2.006-.775,5.541,1.859,6.1,2.786.594,5.386-3.189,6-5.447.724-2.687-.81-5.34-2.827-7a7.813,7.813,0,0,0-7.1-1.721c-2.968.954-3.469,4.411-3.274,7.082.06.815,1.334.82,1.274,0Z" transform="translate(-580.505 -386.383)" fill="#945f00"/>
        </g>
        <ellipse id="Ellipse_102" data-name="Ellipse 102" cx="5.86" cy="2.675" rx="5.86" ry="2.675" transform="translate(74.297 48.643)" fill="url(#radial-gradient-11)"/>
        <ellipse id="Ellipse_103" data-name="Ellipse 103" cx="3.567" cy="1.784" rx="3.567" ry="1.784" transform="translate(76.081 48.643)" fill="url(#radial-gradient-12)"/>
        <ellipse id="Ellipse_104" data-name="Ellipse 104" cx="6.497" cy="2.548" rx="6.497" ry="2.548" transform="translate(8.896 49.833)" fill="url(#radial-gradient-13)"/>
        <ellipse id="Ellipse_105" data-name="Ellipse 105" cx="3.822" cy="1.529" rx="3.822" ry="1.529" transform="translate(11.699 49.578)" fill="url(#radial-gradient-14)"/>
        <path id="Path_802" data-name="Path 802" d="M593.462,547.193c0,.782-1.946,1.416-4.346,1.416s-4.347-.634-4.347-1.416,1.946-1.416,4.347-1.416S593.462,546.411,593.462,547.193Z" transform="translate(-540.823 -464.549)" fill="url(#radial-gradient-15)"/>
        <ellipse id="Ellipse_106" data-name="Ellipse 106" cx="2.675" cy="1.529" rx="2.675" ry="1.529" transform="translate(45.759 79.984)" fill="url(#radial-gradient-16)"/>
      </g>
      <g id="Group_8602" data-name="Group 8602" transform="translate(47.259 55.882)">
        <path id="Path_803" data-name="Path 803" d="M558.934,505.142c.22-4.258,1.689-7.991,6.458-8,3.1,0,6.088,1.24,9.1,1.82,5.3,1.021,10.726-4.024,15.891-1.762,4.038,1.768,3.628,8.962,2.84,12.37-1.074,4.639-5.416,5.816-9.6,5.868-3.726.046-7.414-.731-11.129-.2-3.815.546-7.217,1.833-10.553-.869-2.709-2.194-3.363-5.964-3-9.228.045-.408-.592-.4-.637,0-.547,4.93,1.685,10.616,7.081,11.568,2.848.5,5.961-.761,8.773-1.036a40.436,40.436,0,0,1,6.456.295c3.566.236,7.6.35,10.591-1.926,3.272-2.492,3.433-7.658,2.9-11.336-.453-3.117-1.724-6.015-5.113-6.562-3.045-.491-6.3.86-9.17,1.67-3.424.967-6.009.363-9.386-.492-2.835-.718-6.1-1.435-8.81.037-2.689,1.458-3.179,5.059-3.32,7.781-.021.411.616.409.637,0Z" transform="translate(-558.216 -496.04)" fill="#cc6e52"/>
      </g>
      <g id="Group_8603" data-name="Group 8603" transform="translate(36.8 34.523)">
        <path id="Path_804" data-name="Path 804" d="M538.326,462.3c2.258-6.477,10.223-10.324,15.775-5.125.3.28.751-.169.45-.451-5.9-5.528-14.421-1.532-16.84,5.406-.136.389.48.554.614.169Z" transform="translate(-537.693 -454.127)" fill="#603204"/>
      </g>
      <g id="Group_8604" data-name="Group 8604" transform="translate(74.174 34.523)">
        <path id="Path_805" data-name="Path 805" d="M627.969,462.131c-2.419-6.939-10.935-10.935-16.839-5.406-.3.281.151.731.451.451,5.553-5.2,13.517-1.351,15.775,5.125.135.385.75.22.614-.169Z" transform="translate(-611.031 -454.127)" fill="#603204"/>
      </g>
      <path id="Path_806" data-name="Path 806" d="M520.993,566.333s-4.841,17.582-1.741,23.909A64.241,64.241,0,0,0,520.993,566.333Z" transform="translate(-491.341 -474.629)" fill="url(#radial-gradient-17)"/>
      <path id="Path_807" data-name="Path 807" d="M496.493,635.235s-4.332-30.151,11.848-21.87C508.341,613.365,497,609.33,496.493,635.235Z" transform="translate(-480.43 -496.988)" fill="url(#radial-gradient-18)"/>
    </g>
  </g>
</svg>
