<svg id="Group_22" data-name="Group 22" xmlns="http://www.w3.org/2000/svg" xmlns:xlink="http://www.w3.org/1999/xlink" width="292.872" height="256.737" viewBox="0 0 292.872 256.737">
  <defs>
    <linearGradient id="linear-gradient" x1="0.505" y1="1.007" x2="0.505" gradientUnits="objectBoundingBox">
      <stop offset="0" stop-color="gray" stop-opacity="0.251"/>
      <stop offset="0.54" stop-color="gray" stop-opacity="0.122"/>
      <stop offset="1" stop-color="gray" stop-opacity="0.102"/>
    </linearGradient>
  </defs>
  <g id="Group_2" data-name="Group 2" transform="translate(88.667)">
    <rect id="Rectangle_76" data-name="Rectangle 76" width="3.769" height="31.058" rx="1.884" transform="translate(124.039 58.123)" fill="#3f3d56"/>
    <rect id="Rectangle_80" data-name="Rectangle 80" width="126.072" height="256.222" rx="38.99" fill="#3f3d56"/>
    <path id="Path_176" data-name="Path 176" d="M565.216,199H550.754v1.74a8.243,8.243,0,0,1-8.248,8.243H496.515a8.243,8.243,0,0,1-8.248-8.243V199h-13.54a10.013,10.013,0,0,0-10.013,10.013V431.879a10.013,10.013,0,0,0,10.013,10.013h90.489a10.013,10.013,0,0,0,10.013-10.013V209.03A10.013,10.013,0,0,0,565.216,199Z" transform="translate(-456.692 -192.326)" fill="#fff"/>
    <rect id="Rectangle_81" data-name="Rectangle 81" width="17.605" height="3.573" rx="1.786" transform="translate(50.875 7.652)" fill="#e6e8ec"/>
    <circle id="Ellipse_5" data-name="Ellipse 5" cx="2.029" cy="2.029" r="2.029" transform="translate(71.143 7.409)" fill="#e6e8ec"/>
    <circle id="Ellipse_11" data-name="Ellipse 11" cx="23.849" cy="23.849" r="23.849" transform="translate(39.957 107.408)" fill="#fff"/>
    <path id="Path_222" data-name="Path 222" d="M583.961,441.486a31.875,31.875,0,1,1-31.875-31.876,31.875,31.875,0,0,1,31.875,31.876ZM548.4,458.359l23.645-23.645a2.054,2.054,0,0,0,0-2.909l-2.909-2.888a2.05,2.05,0,0,0-2.905,0L546.947,448.2l-9-9.026a2.063,2.063,0,0,0-2.909,0l-2.909,2.926a2.063,2.063,0,0,0,0,2.909l13.369,13.364a2.054,2.054,0,0,0,2.909,0Z" transform="translate(-488.786 -313.56)" fill="#ea1b22"/>
  </g>
  <g id="Group_1" data-name="Group 1" transform="translate(4.974 33.641)">
    <rect id="Rectangle_77" data-name="Rectangle 77" width="1.9" height="9.191" rx="0.95" transform="translate(86.526 16.872)" fill="#3f3d56"/>
    <rect id="Rectangle_78" data-name="Rectangle 78" width="2.141" height="15.997" rx="1.071" transform="translate(86.457 33.702)" fill="#3f3d56"/>
    <rect id="Rectangle_79" data-name="Rectangle 79" width="2.038" height="16.134" rx="1.019" transform="translate(86.491 55.297)" fill="#3f3d56"/>
    <path id="Path_190" data-name="Path 190" d="M377.46,474.88a.352.352,0,0,0,.417.053A1.477,1.477,0,0,1,377.46,474.88Z" transform="translate(-316.222 -376.919)" fill="url(#linear-gradient)"/>
    <path id="Path_192" data-name="Path 192" d="M383.412,491,383,493.24l-.317,1.714-.577,3.135-5.6,3.919s-.5-.432-1.337-1.113a97.532,97.532,0,0,0-10.656-7.8,11.924,11.924,0,0,0-2.929-1.35Z" transform="translate(-306.418 -386.876)" fill="#feb9b9"/>
    <path id="Path_194" data-name="Path 194" d="M371.984,485.4s6.526,1.12,6.909-1.667-3.359-4.293-6.53-4.481-22.2,1.12-22.2,1.12-3.357,4.477,8.767,5.227Z" transform="translate(-299.096 -379.607)" fill="#3f3d56"/>
    <rect id="Rectangle_82" data-name="Rectangle 82" width="34.142" height="40.485" transform="translate(53.018 13.817)" fill="#2f2e41"/>
    <rect id="Rectangle_83" data-name="Rectangle 83" width="34.142" height="40.485" transform="translate(53.018 14.001)" opacity="0.1"/>
    <path id="Path_198" data-name="Path 198" d="M230.293,430.634a5.479,5.479,0,0,0-2.08,1.472c-3.441,3.407-8.369,11.4-8.369,11.4-6.3-7.505.672-13.435,3.644-15.473.723-.493,1.208-.765,1.208-.765Z" transform="translate(-217.289 -347.511)" fill="#feb9b9"/>
    <path id="Path_199" data-name="Path 199" d="M388.456,288.22s1.68,11.753,7.463,14.552-7.463,8.029-7.463,8.029l-18.1-6.721s10.262-3.359,8.208-13.248Z" transform="translate(-311.836 -261.625)" fill="#feb9b9"/>
    <path id="Path_200" data-name="Path 200" d="M331.652,473.16l-.409,2.233-.332,1.72-.577,3.135-5.6,3.915s-.5-.428-1.337-1.109a97.106,97.106,0,0,0-10.661-7.8,11.85,11.85,0,0,0-2.929-1.35Z" transform="translate(-274.436 -375.857)" fill="#feb9b9"/>
    <path id="Path_202" data-name="Path 202" d="M319.375,468.646s5.857.041,6.21-2.754-3.192-4.293-6.21-4.481-21.352,1.207-21.352,1.207-2.6,5.279,8.931,6.027Z" transform="translate(-267.001 -368.59)" fill="#2f2e41"/>
    <path id="Path_204" data-name="Path 204" d="M388.723,512.611c-.256-.126-.512-.256-.765-.382l-.688-.868-9.027-11.447v.2c-.061,1.912-.711,17.06-5.781,18.459-5.41,1.491-11.936,1.866-14.911-8.209s-8.411-32.089-13.993-33.4l8.3-6.809s5.5,6.431,7.738,12.586c-.084-.382-3.881-18.122-.765-21.261h27.243s4.206,11.979,7.088,17.912c2.244,4.607,5.613,15.5,7.781,22.871A8.752,8.752,0,0,1,388.723,512.611Z" transform="translate(-295.281 -368.644)" fill="#3f3d56"/>
    <path id="Path_205" data-name="Path 205" d="M410.575,428.03c-4.206,2.489-22.669,1.476-28.675,1.071l-1.636-.119c-.176,0,.027-.1.027-.1l.168-1.694,4.477-11.378,23.972-13.9a20.864,20.864,0,0,0-.608,6.27C408.411,416.422,410.575,428.03,410.575,428.03Z" transform="translate(-317.909 -331.847)" opacity="0.1"/>
    <path id="Path_206" data-name="Path 206" d="M410.252,426.58c-4.206,2.489-22.669,1.476-28.675,1.071l-1.636-.115-.271-.023.3-.076,1.476-.382,3.169-12.686,23.972-13.9a20.876,20.876,0,0,0-.608,6.27C408.088,414.976,410.252,426.58,410.252,426.58Z" transform="translate(-317.586 -330.958)" fill="#efefef"/>
    <path id="Path_207" data-name="Path 207" d="M408.376,406.732c-4.875,1.124-15.6,4.422-19.725,12.388-2.749,5.3-5.062,7.578-6.676,8.53l-1.636-.115a.942.942,0,0,0,.027-.1l1.476-.382,3.169-12.686,23.972-13.9A20.97,20.97,0,0,0,408.376,406.732Z" transform="translate(-318 -330.958)" opacity="0.1"/>
    <path id="Path_208" data-name="Path 208" d="M234.709,427.29l5.6,3.357a5.479,5.479,0,0,0-2.08,1.472c-.467-1.361-3.394-3.261-4.726-4.072C234.223,427.561,234.709,427.29,234.709,427.29Z" transform="translate(-227.303 -347.524)" opacity="0.1"/>
    <path id="Path_209" data-name="Path 209" d="M377.112,471.743a.333.333,0,0,1-.382-.053,1.327,1.327,0,0,0,.382.053Z" transform="translate(-315.771 -374.949)" opacity="0.1"/>
    <path id="Path_210" data-name="Path 210" d="M301.125,278.233a11.093,11.093,0,0,1-8.583-3.173s-14.911,4.293-19.962,13.993-39.38,28.732-39.38,28.732,5.972,3.357,5.41,5.035l22.577-13.06s8.029-5.781,10.258-7.088,14.555-9.329,17.167,12.5,0,19.216,0,19.216,3.732,1.308,9.142-9.142,22.2-12.873,22.2-12.873l.933-11s3.33-7.295.765-10.323a6.5,6.5,0,0,1-1.495-3.158c-.424-2.795,0-7.452,5.941-11.321,9.142-5.972,12.686-10.82,12.686-10.82s.187-3.548-5.41-5.227-28.358-10.82-28.358-10.82l-.765,3.173,17.958,12.674s-8.954,7.264-16.058,7.088C306.149,272.636,307.468,278.046,301.125,278.233Z" transform="translate(-227.117 -237.833)" fill="#ea1b22"/>
    <path id="Path_211" data-name="Path 211" d="M401.895,294.237a36.434,36.434,0,0,1-1.032-4.557l-9.887,2.612a10.84,10.84,0,0,1-.226,5.7A10.633,10.633,0,0,0,401.895,294.237Z" transform="translate(-324.431 -262.527)" opacity="0.1"/>
    <circle id="Ellipse_10" data-name="Ellipse 10" cx="10.633" cy="10.633" r="10.633" transform="translate(58.619 14.005)" fill="#feb9b9"/>
    <path id="Path_213" data-name="Path 213" d="M428.67,507.07s6.156,12.128,4.29,15.855" transform="translate(-347.852 -396.802)" opacity="0.1"/>
    <path id="Path_221" data-name="Path 221" d="M366.462,218.74c2.951.337,5.754,1.6,8.66,2.294a4.3,4.3,0,0,0,2.241.084c1.128-.348,2.045-1.529,3.215-1.495a3.564,3.564,0,0,1,1.95.982,23.985,23.985,0,0,1,2.676,2.386c2,2.175,3.246,5.1,5.073,7.471s4.434,5.142,7.03,4.057a15.007,15.007,0,0,1-13.533,11.616c-2.5.171-5.055-.348-7.471.382a6.473,6.473,0,0,1-1.885.459c-1.392,0-2.512-1.277-3.38-2.52-2.034-2.921-3.644-6.236-5.934-8.9a4.879,4.879,0,0,0-2.718-1.881,5.033,5.033,0,0,0-3,.845,14.1,14.1,0,0,0-4.4,3.059,6.086,6.086,0,0,0-1.484,5.353,12.485,12.485,0,0,1,.9,3c.023,1.7-1.476,2.936-1.77,4.588a17.2,17.2,0,0,0-.073,2.088c-.13,2.262-1.611,4.113-3.154,5.54a3.977,3.977,0,0,0-1.445,2c-.119.585,0,1.2-.076,1.793-.226,1.468-1.69,2.214-2.986,2.405a8.614,8.614,0,0,1-4.481-.531,5.166,5.166,0,0,0,2.508-5.479c-.577-3.028-3.621-5.2-3.359-8.285a9.6,9.6,0,0,1,.841-2.726,24.974,24.974,0,0,0,1.438-5.165,8.7,8.7,0,0,0-.088-4.118,12.8,12.8,0,0,0-1.858-3.131,17.8,17.8,0,0,1-2.152-4.408,3.1,3.1,0,0,1-.206-1.461,3.013,3.013,0,0,1,.937-1.51c1.663-1.748,3.441-3.563,5.67-4.064a12.763,12.763,0,0,1,3.219-.122,38,38,0,0,0,5.593-.237c1.529-.18,4.114-.157,5.41-1.147,1.208-.926,1.889-2.088,3.376-2.676a9.941,9.941,0,0,1,4.718-.539Z" transform="translate(-291.556 -218.66)" fill="#2f2e41"/>
  </g>
  <ellipse id="Ellipse_9" data-name="Ellipse 9" cx="15.424" cy="2.608" rx="15.424" ry="2.608" transform="translate(262.024 250.369)" fill="#ea1b22"/>
  <path id="Path_179" data-name="Path 179" d="M894.157,829.736a4.491,4.491,0,0,0,1.469-2.221,1.98,1.98,0,0,0-1.028-2.259c-.944-.361-1.954.3-2.716.955s-1.642,1.415-2.643,1.273a4.02,4.02,0,0,0,1.248-3.763,1.585,1.585,0,0,0-.349-.767c-.522-.56-1.474-.322-2.1.123-1.995,1.4-2.551,4.113-2.562,6.547a12.307,12.307,0,0,1-.038-2.685,2.771,2.771,0,0,0-1.013-2.39,3.047,3.047,0,0,0-1.534-.361,3.2,3.2,0,0,0-2.509.713,2.472,2.472,0,0,0,.1,3.069,9.773,9.773,0,0,0,2.6,2.079,5.754,5.754,0,0,1,1.851,1.768,1.591,1.591,0,0,1,.137.318h5.6a15.755,15.755,0,0,0,3.483-2.4Z" transform="translate(-610.33 -581.024)" fill="#ea1b22"/>
  <ellipse id="Ellipse_9-2" data-name="Ellipse 9" cx="10.179" cy="1.722" rx="10.179" ry="1.722" transform="translate(57.566 253.294)" fill="#efefef"/>
  <path id="Path_179-2" data-name="Path 179" d="M889.3,827.319a2.964,2.964,0,0,0,.969-1.466,1.307,1.307,0,0,0-.678-1.491c-.623-.238-1.289.2-1.792.63a2.394,2.394,0,0,1-1.744.841,2.653,2.653,0,0,0,.823-2.483,1.046,1.046,0,0,0-.23-.506c-.343-.37-.972-.213-1.385.081-1.316.926-1.683,2.714-1.691,4.321a8.139,8.139,0,0,1-.025-1.772,1.83,1.83,0,0,0-.668-1.577,2.01,2.01,0,0,0-1.013-.238,2.109,2.109,0,0,0-1.656.471,1.632,1.632,0,0,0,.066,2.025,6.421,6.421,0,0,0,1.714,1.371,3.8,3.8,0,0,1,1.223,1.165,1.056,1.056,0,0,1,.091.21h3.7a10.4,10.4,0,0,0,2.3-1.585Z" transform="translate(-817.349 -575.118)" fill="#efefef"/>
  <ellipse id="Ellipse_12" data-name="Ellipse 12" cx="10.179" cy="1.722" rx="10.179" ry="1.722" transform="translate(0 253.294)" fill="#efefef"/>
  <path id="Path_223" data-name="Path 223" d="M889.3,827.319a2.964,2.964,0,0,0,.969-1.466,1.307,1.307,0,0,0-.678-1.491c-.623-.238-1.289.2-1.792.63a2.394,2.394,0,0,1-1.744.841,2.653,2.653,0,0,0,.823-2.483,1.046,1.046,0,0,0-.23-.506c-.343-.37-.972-.213-1.385.081-1.316.926-1.683,2.714-1.691,4.321a8.139,8.139,0,0,1-.025-1.772,1.83,1.83,0,0,0-.668-1.577,2.01,2.01,0,0,0-1.013-.238,2.109,2.109,0,0,0-1.656.471,1.632,1.632,0,0,0,.066,2.025,6.421,6.421,0,0,0,1.714,1.371,3.8,3.8,0,0,1,1.223,1.165,1.056,1.056,0,0,1,.091.21h3.7a10.4,10.4,0,0,0,2.3-1.585Z" transform="translate(-874.915 -575.118)" fill="#efefef"/>
  <path id="Path_177" data-name="Path 177" d="M799.142,156.862s-32.3-1.949-28.493,20.683a5.5,5.5,0,0,0,2.869,5.815s.058-1.676,3.314-1.1a15.152,15.152,0,0,0,3.51.169,7.311,7.311,0,0,0,4.288-1.753h0s9.08-3.752,12.609-18.589c0,0,2.612-3.237,2.509-4.07l-5.45,2.328s1.864,3.932.384,7.2c0,0-.177-7.058-1.224-6.9-.211.031-2.831,1.362-2.831,1.362s3.2,6.847.786,11.826c0,0,.917-8.439-1.788-11.331l-3.836,2.24s3.744,7.074,1.2,12.847c0,0,.651-8.853-2.014-12.3l-3.475,2.712s3.517,6.97,1.373,11.758c0,0-.28-10.3-2.125-11.082,0,0-3.042,2.685-3.506,3.782,0,0,2.409,5.063.913,7.733,0,0-.917-6.866-1.669-6.9,0,0-3.03,4.549-3.345,7.672a16.53,16.53,0,0,1,2.612-8.1,9.139,9.139,0,0,0-4.641,2.4s.472-3.214,5.389-3.5c0,0,2.5-3.452,3.172-3.659,0,0-4.887-.411-7.852.905,0,0,2.608-3.034,8.75-1.653l3.433-2.8s-6.437-.879-9.168.092c0,0,3.142-2.685,10.092-.729l3.736-2.233s-5.489-1.182-8.757-.767c0,0,3.452-1.86,9.854.157l2.685-1.2s-4.02-.79-5.2-.917-1.239-.449-1.239-.449a13.944,13.944,0,0,1,7.553.84S799.238,157.219,799.142,156.862Z" transform="translate(-510.194 -139.543)" fill="#ea1b22"/>
  <path id="Path_178" data-name="Path 178" d="M738.154,130.664s-14.576-.879-12.873,9.348a2.492,2.492,0,0,0,1.3,2.628s.027-.767,1.5-.5a6.716,6.716,0,0,0,1.584.077,3.283,3.283,0,0,0,1.937-.8h0s4.1-1.7,5.7-8.4c0,0,1.177-1.461,1.131-1.837l-2.463,1.051a4.425,4.425,0,0,1,.18,3.253s-.081-3.188-.552-3.115c-.1,0-1.281.617-1.281.617s1.45,3.1.357,5.343c0,0,.414-3.813-.809-5.121l-1.734,1.028s1.692,3.2.545,5.8c0,0,.3-4-.909-5.558l-1.569,1.228s1.588,3.149.621,5.313c0,0-.13-4.657-.963-5.01a9.626,9.626,0,0,0-1.584,1.711s1.089,2.3.414,3.494c0,0-.414-3.1-.767-3.119a10.333,10.333,0,0,0-1.511,3.452,7.487,7.487,0,0,1,1.182-3.659,4.128,4.128,0,0,0-2.1,1.086s.215-1.454,2.436-1.58a10.5,10.5,0,0,1,1.435-1.657,8.985,8.985,0,0,0-3.548.411s1.177-1.369,3.951-.748l1.534-1.266a13.183,13.183,0,0,0-4.144.04s1.419-1.212,4.561-.33l1.688-1.009a15.421,15.421,0,0,0-3.959-.343s1.561-.84,4.454.069l1.208-.541s-1.817-.357-2.352-.414-.56-.2-.56-.2a6.287,6.287,0,0,1,3.414.384A15.781,15.781,0,0,0,738.154,130.664Z" transform="translate(-493.459 -125.326)" fill="#3f3d56"/>
  <path id="Path_224" data-name="Path 224" d="M738.154,130.664s-14.576-.879-12.873,9.348a2.492,2.492,0,0,0,1.3,2.628s.027-.767,1.5-.5a6.716,6.716,0,0,0,1.584.077,3.283,3.283,0,0,0,1.937-.8h0s4.1-1.7,5.7-8.4c0,0,1.177-1.461,1.131-1.837l-2.463,1.051a4.425,4.425,0,0,1,.18,3.253s-.081-3.188-.552-3.115c-.1,0-1.281.617-1.281.617s1.45,3.1.357,5.343c0,0,.414-3.813-.809-5.121l-1.734,1.028s1.692,3.2.545,5.8c0,0,.3-4-.909-5.558l-1.569,1.228s1.588,3.149.621,5.313c0,0-.13-4.657-.963-5.01a9.626,9.626,0,0,0-1.584,1.711s1.089,2.3.414,3.494c0,0-.414-3.1-.767-3.119a10.333,10.333,0,0,0-1.511,3.452,7.487,7.487,0,0,1,1.182-3.659,4.128,4.128,0,0,0-2.1,1.086s.215-1.454,2.436-1.58a10.5,10.5,0,0,1,1.435-1.657,8.985,8.985,0,0,0-3.548.411s1.177-1.369,3.951-.748l1.534-1.266a13.183,13.183,0,0,0-4.144.04s1.419-1.212,4.561-.33l1.688-1.009a15.421,15.421,0,0,0-3.959-.343s1.561-.84,4.454.069l1.208-.541s-1.817-.357-2.352-.414-.56-.2-.56-.2a6.287,6.287,0,0,1,3.414.384A15.781,15.781,0,0,0,738.154,130.664Z" transform="translate(-718.243 30.794)" fill="#3f3d56"/>
</svg>
