<svg xmlns="http://www.w3.org/2000/svg" width="18" height="18" viewBox="0 0 18 18">
  <g id="Octicons" transform="translate(0 -0.98)">
    <g id="info" transform="translate(0 0.98)">
      <path id="Shape" d="M8.1,7.036a1.211,1.211,0,0,1-.36-.9,1.192,1.192,0,0,1,.36-.9,1.263,1.263,0,0,1,.9-.36,1.192,1.192,0,0,1,.9.36,1.263,1.263,0,0,1,.36.9,1.192,1.192,0,0,1-.36.9,1.286,1.286,0,0,1-.9.386A1.213,1.213,0,0,1,8.1,7.036Zm2.186,2.957a1.4,1.4,0,0,0-.4-.887A1.318,1.318,0,0,0,9,8.707H7.714a1.479,1.479,0,0,0-.887.4,1.311,1.311,0,0,0-.4.887H7.714V13.85a1.292,1.292,0,0,0,.4.887,1.212,1.212,0,0,0,.887.4h1.286a1.369,1.369,0,0,0,1.286-1.286H10.286V9.993ZM9,2.677a7.309,7.309,0,1,0,0-.013v.013ZM9,.98a9,9,0,1,1-9,9,9.01,9.01,0,0,1,9-9Z" transform="translate(0 -0.98)" fill-rule="evenodd"/>
    </g>
  </g>
</svg>
